<svg width="160" height="44" viewBox="0 0 160 44" fill="none" xmlns="http://www.w3.org/2000/svg">
<path d="M12.6338 9.29202L12.6132 8.74118C12.6132 8.74118 12.5785 8.23122 12.3934 7.95428C12.2084 7.67735 11.9488 7.51769 11.7601 7.45111C11.5706 7.38376 11.4585 7.35576 11.213 7.34593C10.9674 7.33685 10.6813 7.33533 10.6813 7.33533L12.6338 9.29202ZM10.6813 11.2487C10.6813 11.2487 10.3952 11.2472 10.1497 11.2381C9.90413 11.2291 9.79205 11.2003 9.60255 11.133C9.41305 11.0656 9.15424 10.9067 8.96843 10.6298C8.78262 10.3528 8.74867 9.84288 8.74867 9.84288L8.72806 9.29202L10.6805 7.33533C10.6805 7.33533 10.3945 7.33685 10.149 7.34593C9.90341 7.355 9.79133 7.38376 9.60183 7.45111C9.41233 7.51845 9.15348 7.67735 8.96767 7.95428C8.78185 8.23122 8.74795 8.74118 8.74795 8.74118L8.72729 9.29202L10.6813 11.2487ZM10.6813 11.2487C10.6813 11.2487 10.9674 11.2472 11.213 11.2381C11.4585 11.2291 11.5706 11.2003 11.7601 11.133C11.9496 11.0656 12.2084 10.9067 12.3934 10.6298C12.5785 10.3528 12.6132 9.84288 12.6132 9.84288L12.6338 9.29202L10.6813 11.2487ZM10.6813 7.33609L8.72878 9.29278L10.6813 11.2495L12.6338 9.29278L10.6813 7.33609ZM12.6346 13.2054L12.6139 12.6546C12.6139 12.6546 12.5793 12.1446 12.3942 11.8677C12.2091 11.5907 11.9496 11.4311 11.7608 11.3645C11.5713 11.2972 11.4592 11.2692 11.2137 11.2593C10.9681 11.2495 10.682 11.2487 10.682 11.2487L12.6346 13.2054ZM8.7295 13.2054L8.75016 12.6546C8.75016 12.6546 8.78484 12.1446 8.96992 11.8677C9.15499 11.5907 9.41453 11.4311 9.60403 11.3645C9.79353 11.2972 9.90562 11.2692 10.1512 11.2593C10.3967 11.2495 10.6828 11.2487 10.6828 11.2487L8.7295 13.2054L8.75016 13.7563C8.75016 13.7563 8.78484 14.2662 8.96992 14.5432C9.15499 14.8201 9.41453 14.9798 9.60403 15.0464C9.79353 15.1137 9.90562 15.1417 10.1512 15.1515C10.3967 15.1614 10.6828 15.1621 10.6828 15.1621L8.7295 13.2054ZM10.682 15.1614C10.682 15.1614 10.9681 15.1599 11.2137 15.1508C11.4592 15.1417 11.5713 15.1129 11.7608 15.0456C11.9503 14.9782 12.2091 14.8194 12.3942 14.5424C12.5793 14.2655 12.6139 13.7555 12.6139 13.7555L12.6346 13.2047L10.682 15.1614ZM10.682 11.2487L8.7295 13.2054L10.682 15.1621L12.6346 13.2054L10.682 11.2487Z" fill="#0047BB"/>
<path d="M8.7295 13.2054L8.75016 12.6546C8.75016 12.6546 8.78484 12.1446 8.96992 11.8677C9.15499 11.5907 9.41453 11.4311 9.60403 11.3645C9.79353 11.2972 9.90562 11.2692 10.1512 11.2593C10.3967 11.2495 10.6828 11.2487 10.6828 11.2487L8.7295 13.2054ZM8.7295 13.2054L8.75016 13.7563C8.75016 13.7563 8.78484 14.2662 8.96992 14.5432C9.15499 14.8201 9.41453 14.9798 9.60403 15.0464C9.79353 15.1137 9.90562 15.1417 10.1512 15.1515C10.3967 15.1614 10.6828 15.1621 10.6828 15.1621L8.7295 13.2054ZM12.6338 9.29202L12.6132 8.74118C12.6132 8.74118 12.5785 8.23122 12.3934 7.95428C12.2084 7.67735 11.9488 7.51769 11.7601 7.45111C11.5706 7.38376 11.4585 7.35576 11.213 7.34593C10.9674 7.33685 10.6813 7.33533 10.6813 7.33533L12.6338 9.29202ZM10.6813 11.2487C10.6813 11.2487 10.3952 11.2472 10.1497 11.2381C9.90413 11.2291 9.79205 11.2003 9.60255 11.133C9.41305 11.0656 9.15424 10.9067 8.96843 10.6298C8.78262 10.3528 8.74867 9.84288 8.74867 9.84288L8.72806 9.29202L10.6805 7.33533C10.6805 7.33533 10.3945 7.33685 10.149 7.34593C9.90341 7.355 9.79133 7.38376 9.60183 7.45111C9.41233 7.51845 9.15348 7.67735 8.96767 7.95428C8.78185 8.23122 8.74795 8.74118 8.74795 8.74118L8.72729 9.29202L10.6813 11.2487ZM10.6813 11.2487C10.6813 11.2487 10.9674 11.2472 11.213 11.2381C11.4585 11.2291 11.5706 11.2003 11.7601 11.133C11.9496 11.0656 12.2084 10.9067 12.3934 10.6298C12.5785 10.3528 12.6132 9.84288 12.6132 9.84288L12.6338 9.29202L10.6813 11.2487ZM10.6813 7.33609L8.72878 9.29278L10.6813 11.2495L12.6338 9.29278L10.6813 7.33609ZM12.6346 13.2054L12.6139 12.6546C12.6139 12.6546 12.5793 12.1446 12.3942 11.8677C12.2091 11.5907 11.9496 11.4311 11.7608 11.3645C11.5713 11.2972 11.4592 11.2692 11.2137 11.2593C10.9681 11.2495 10.682 11.2487 10.682 11.2487L12.6346 13.2054ZM10.682 15.1614C10.682 15.1614 10.9681 15.1599 11.2137 15.1508C11.4592 15.1417 11.5713 15.1129 11.7608 15.0456C11.9503 14.9782 12.2091 14.8194 12.3942 14.5424C12.5793 14.2655 12.6139 13.7555 12.6139 13.7555L12.6346 13.2047L10.682 15.1614ZM10.682 11.2487L8.7295 13.2054L10.682 15.1621L12.6346 13.2054L10.682 11.2487Z" stroke="#0047BB" stroke-width="0.01" stroke-miterlimit="10"/>
<path d="M12.6346 19.3104L12.6139 18.7595C12.6139 18.7595 12.5793 18.2495 12.3942 17.9726C12.2091 17.6957 11.9496 17.536 11.7601 17.4694C11.5706 17.4021 11.4585 17.3741 11.2129 17.3643C10.9674 17.3544 10.6813 17.3537 10.6813 17.3537L12.6346 19.3104ZM8.72949 19.3104L8.75015 18.7595C8.75015 18.7595 8.78483 18.2495 8.96991 17.9726C9.15498 17.6957 9.4145 17.536 9.60326 17.4694C9.79276 17.4021 9.90484 17.3741 10.1504 17.3643C10.3959 17.3552 10.682 17.3537 10.682 17.3537L8.72949 19.3104L8.75015 19.8612C8.75015 19.8612 8.78483 20.3712 8.96991 20.6481C9.15498 20.9251 9.4145 21.0847 9.60326 21.1513C9.79276 21.2186 9.90484 21.2466 10.1504 21.2565C10.3959 21.2655 10.682 21.2671 10.682 21.2671L8.72949 19.3104ZM10.682 21.2671C10.682 21.2671 10.9681 21.2655 11.2137 21.2565C11.4592 21.2474 11.5713 21.2186 11.7608 21.1513C11.9503 21.084 12.2091 20.9251 12.3949 20.6481C12.58 20.3712 12.6147 19.8612 12.6147 19.8612L12.6353 19.3104L10.682 21.2671ZM10.682 17.3544L8.72949 19.3111L10.682 21.2678L12.6346 19.3111L10.682 17.3544ZM12.6346 23.2237L12.6139 22.6729C12.6139 22.6729 12.5793 22.1629 12.3942 21.886C12.2091 21.6091 11.9496 21.4494 11.7601 21.3828C11.5706 21.3155 11.4585 21.2875 11.2129 21.2777C10.9674 21.2686 10.6813 21.2671 10.6813 21.2671L12.6346 23.2237ZM8.72949 23.2237L8.75015 22.6729C8.75015 22.6729 8.78483 22.1629 8.96991 21.886C9.15498 21.6091 9.41452 21.4494 9.60403 21.3828C9.79353 21.3155 9.90561 21.2875 10.1511 21.2777C10.3967 21.2686 10.6828 21.2671 10.6828 21.2671L8.72949 23.2237L8.75015 23.7746C8.75015 23.7746 8.78483 24.2846 8.96991 24.5615C9.15498 24.8384 9.41452 24.9981 9.60403 25.0647C9.79353 25.132 9.90561 25.16 10.1511 25.1698C10.3967 25.1789 10.6828 25.1804 10.6828 25.1804L8.72949 23.2237ZM10.682 25.1797C10.682 25.1797 10.9681 25.1782 11.2137 25.1691C11.4592 25.16 11.5713 25.1313 11.7608 25.0639C11.9503 24.9966 12.2091 24.8377 12.3949 24.5607C12.58 24.2838 12.6147 23.7738 12.6147 23.7738L12.6353 23.223L10.682 25.1797ZM10.682 21.2671L8.72949 23.2237L10.682 25.1804L12.6346 23.2237L10.682 21.2671Z" fill="#0047BB"/>
<path d="M8.72949 19.3104L8.75015 18.7595C8.75015 18.7595 8.78483 18.2495 8.96991 17.9726C9.15498 17.6957 9.4145 17.536 9.60326 17.4694C9.79276 17.4021 9.90484 17.3741 10.1504 17.3643C10.3959 17.3552 10.682 17.3537 10.682 17.3537L8.72949 19.3104ZM8.72949 19.3104L8.75015 19.8612C8.75015 19.8612 8.78483 20.3712 8.96991 20.6481C9.15498 20.9251 9.4145 21.0847 9.60326 21.1513C9.79276 21.2186 9.90484 21.2466 10.1504 21.2565C10.3959 21.2655 10.682 21.2671 10.682 21.2671L8.72949 19.3104ZM8.72949 23.2237L8.75015 22.6729C8.75015 22.6729 8.78483 22.1629 8.96991 21.886C9.15498 21.6091 9.41452 21.4494 9.60403 21.3828C9.79353 21.3155 9.90561 21.2875 10.1511 21.2777C10.3967 21.2686 10.6828 21.2671 10.6828 21.2671L8.72949 23.2237ZM8.72949 23.2237L8.75015 23.7746C8.75015 23.7746 8.78483 24.2846 8.96991 24.5615C9.15498 24.8384 9.41452 24.9981 9.60403 25.0647C9.79353 25.132 9.90561 25.16 10.1511 25.1698C10.3967 25.1789 10.6828 25.1804 10.6828 25.1804L8.72949 23.2237ZM12.6346 19.3104L12.6139 18.7595C12.6139 18.7595 12.5793 18.2495 12.3942 17.9726C12.2091 17.6957 11.9496 17.536 11.7601 17.4694C11.5706 17.4021 11.4585 17.3741 11.2129 17.3643C10.9674 17.3544 10.6813 17.3537 10.6813 17.3537L12.6346 19.3104ZM10.682 21.2671C10.682 21.2671 10.9681 21.2655 11.2137 21.2565C11.4592 21.2474 11.5713 21.2186 11.7608 21.1513C11.9503 21.084 12.2091 20.9251 12.3949 20.6481C12.58 20.3712 12.6147 19.8612 12.6147 19.8612L12.6353 19.3104L10.682 21.2671ZM10.682 17.3544L8.72949 19.3111L10.682 21.2678L12.6346 19.3111L10.682 17.3544ZM12.6346 23.2237L12.6139 22.6729C12.6139 22.6729 12.5793 22.1629 12.3942 21.886C12.2091 21.6091 11.9496 21.4494 11.7601 21.3828C11.5706 21.3155 11.4585 21.2875 11.2129 21.2777C10.9674 21.2686 10.6813 21.2671 10.6813 21.2671L12.6346 23.2237ZM10.682 25.1797C10.682 25.1797 10.9681 25.1782 11.2137 25.1691C11.4592 25.16 11.5713 25.1313 11.7608 25.0639C11.9503 24.9966 12.2091 24.8377 12.3949 24.5607C12.58 24.2838 12.6147 23.7738 12.6147 23.7738L12.6353 23.223L10.682 25.1797ZM10.682 21.2671L8.72949 23.2237L10.682 25.1804L12.6346 23.2237L10.682 21.2671Z" stroke="#0047BB" stroke-width="0.01" stroke-miterlimit="10"/>
<path d="M12.636 29.3299L12.6154 28.7791C12.6154 28.7791 12.5808 28.2691 12.3957 27.9922C12.2106 27.7152 11.951 27.5556 11.7615 27.489C11.572 27.4217 11.4599 27.3937 11.2144 27.3838C10.9688 27.3748 10.6828 27.3732 10.6828 27.3732L12.636 29.3299ZM8.73098 29.3299L8.75163 28.7791C8.75163 28.7791 8.78627 28.2691 8.97135 27.9922C9.15643 27.7152 9.41601 27.5556 9.60551 27.489C9.79501 27.4217 9.90705 27.3937 10.1526 27.3838C10.3981 27.374 10.6842 27.3732 10.6842 27.3732L8.73098 29.3299L8.75163 29.8808C8.75163 29.8808 8.78627 30.3908 8.97135 30.6677C9.15643 30.9446 9.41601 31.1043 9.60551 31.1709C9.79501 31.2382 9.90705 31.2662 10.1526 31.276C10.3981 31.2851 10.6842 31.2866 10.6842 31.2866L8.73098 29.3299ZM10.6835 31.2866C10.6835 31.2866 10.9696 31.2851 11.2152 31.276C11.4607 31.267 11.5728 31.2382 11.7623 31.1709C11.9518 31.1035 12.2106 30.9446 12.3964 30.6677C12.5815 30.3908 12.6161 29.8808 12.6161 29.8808L12.6368 29.3299L10.6835 31.2866ZM10.6835 27.374L8.73098 29.3307L10.6835 31.2874L12.636 29.3307L10.6835 27.374ZM12.636 33.2433L12.6154 32.6925C12.6154 32.6925 12.5808 32.1825 12.3957 31.9056C12.2106 31.6286 11.951 31.469 11.7623 31.4024C11.5728 31.335 11.4607 31.3071 11.2152 31.2972C10.9696 31.2874 10.6835 31.2866 10.6835 31.2866L12.636 33.2433ZM10.6835 35.1993C10.6835 35.1993 10.3974 35.1978 10.1519 35.1887C9.90633 35.1796 9.79425 35.1508 9.60475 35.0835C9.41524 35.0162 9.15644 34.8573 8.97063 34.5803C8.78555 34.3034 8.75087 33.7934 8.75087 33.7934L8.73026 33.2426L10.6828 31.2859C10.6828 31.2859 10.3967 31.2874 10.1511 31.2965C9.90561 31.3055 9.79353 31.3343 9.60403 31.4016C9.41452 31.469 9.15572 31.6279 8.96991 31.9048C8.78483 32.1817 8.75015 32.6917 8.75015 32.6917L8.72949 33.2426L10.6835 35.1993ZM10.6835 35.1993C10.6835 35.1993 10.9696 35.1978 11.2152 35.1887C11.4607 35.1796 11.5728 35.1508 11.7623 35.0835C11.9518 35.0162 12.2106 34.8573 12.3957 34.5803C12.5808 34.3034 12.6154 33.7934 12.6154 33.7934L12.636 33.2426L10.6835 35.1993ZM10.6835 31.2866L8.73098 33.2433L10.6835 35.2L12.636 33.2433L10.6835 31.2866Z" fill="#0047BB"/>
<path d="M8.73098 29.3299L8.75163 28.7791C8.75163 28.7791 8.78627 28.2691 8.97135 27.9922C9.15643 27.7152 9.41601 27.5556 9.60551 27.489C9.79501 27.4217 9.90705 27.3937 10.1526 27.3838C10.3981 27.374 10.6842 27.3732 10.6842 27.3732L8.73098 29.3299ZM8.73098 29.3299L8.75163 29.8808C8.75163 29.8808 8.78627 30.3908 8.97135 30.6677C9.15643 30.9446 9.41601 31.1043 9.60551 31.1709C9.79501 31.2382 9.90705 31.2662 10.1526 31.276C10.3981 31.2851 10.6842 31.2866 10.6842 31.2866L8.73098 29.3299ZM12.636 29.3299L12.6154 28.7791C12.6154 28.7791 12.5808 28.2691 12.3957 27.9922C12.2106 27.7152 11.951 27.5556 11.7615 27.489C11.572 27.4217 11.4599 27.3937 11.2144 27.3838C10.9688 27.3748 10.6828 27.3732 10.6828 27.3732L12.636 29.3299ZM10.6835 31.2866C10.6835 31.2866 10.9696 31.2851 11.2152 31.276C11.4607 31.267 11.5728 31.2382 11.7623 31.1709C11.9518 31.1035 12.2106 30.9446 12.3964 30.6677C12.5815 30.3908 12.6161 29.8808 12.6161 29.8808L12.6368 29.3299L10.6835 31.2866ZM10.6835 27.374L8.73098 29.3307L10.6835 31.2874L12.636 29.3307L10.6835 27.374ZM12.636 33.2433L12.6154 32.6925C12.6154 32.6925 12.5808 32.1825 12.3957 31.9056C12.2106 31.6286 11.951 31.469 11.7623 31.4024C11.5728 31.335 11.4607 31.3071 11.2152 31.2972C10.9696 31.2874 10.6835 31.2866 10.6835 31.2866L12.636 33.2433ZM10.6835 35.1993C10.6835 35.1993 10.3974 35.1978 10.1519 35.1887C9.90633 35.1796 9.79425 35.1508 9.60475 35.0835C9.41524 35.0162 9.15644 34.8573 8.97063 34.5803C8.78555 34.3034 8.75087 33.7934 8.75087 33.7934L8.73026 33.2426L10.6828 31.2859C10.6828 31.2859 10.3967 31.2874 10.1511 31.2965C9.90561 31.3055 9.79353 31.3343 9.60403 31.4016C9.41452 31.469 9.15572 31.6279 8.96991 31.9048C8.78483 32.1817 8.75015 32.6917 8.75015 32.6917L8.72949 33.2426L10.6835 35.1993ZM10.6835 35.1993C10.6835 35.1993 10.9696 35.1978 11.2152 35.1887C11.4607 35.1796 11.5728 35.1508 11.7623 35.0835C11.9518 35.0162 12.2106 34.8573 12.3957 34.5803C12.5808 34.3034 12.6154 33.7934 12.6154 33.7934L12.636 33.2426L10.6835 35.1993ZM10.6835 31.2866L8.73098 33.2433L10.6835 35.2L12.636 33.2433L10.6835 31.2866Z" stroke="#0047BB" stroke-width="0.01" stroke-miterlimit="10"/>
<path d="M18.4936 9.29003L18.473 8.73919C18.473 8.73919 18.4384 8.22923 18.2533 7.95229C18.0682 7.67536 17.8086 7.5157 17.6199 7.44911C17.4304 7.38177 17.3183 7.35377 17.0728 7.34393C16.8272 7.3341 16.5411 7.33333 16.5411 7.33333L18.4936 9.29003ZM14.5893 9.29079L14.61 8.73995C14.61 8.73995 14.6446 8.22996 14.8297 7.95303C15.0148 7.6761 15.2743 7.51646 15.4638 7.44987C15.6533 7.38253 15.7654 7.35453 16.011 7.34469C16.2565 7.33486 16.5426 7.3341 16.5426 7.3341L14.5893 9.29079L14.61 9.84163C14.61 9.84163 14.6446 10.3516 14.8297 10.6286C15.0148 10.9055 15.2743 11.0651 15.4638 11.1317C15.6533 11.1991 15.7654 11.2271 16.011 11.2369C16.2565 11.2467 16.5426 11.2475 16.5426 11.2475L14.5893 9.29079ZM16.5411 11.2467C16.5411 11.2467 16.8272 11.2452 17.0728 11.2361C17.3183 11.2271 17.4304 11.1983 17.6199 11.131C17.8094 11.0636 18.0682 10.9047 18.2533 10.6278C18.4384 10.3509 18.473 9.84089 18.473 9.84089L18.4936 9.29003L16.5411 11.2467ZM16.5411 7.3341L14.5886 9.29079L16.5411 11.2467L18.4936 9.29079L16.5411 7.3341ZM22.4009 9.29155L22.3803 8.74071C22.3803 8.74071 22.3456 8.23073 22.1605 7.95379C21.9755 7.67686 21.7159 7.5172 21.5264 7.45061C21.3369 7.38327 21.2248 7.35529 20.9793 7.34546C20.7338 7.33638 20.4477 7.33486 20.4477 7.33486L22.4009 9.29155ZM18.4959 9.29155L18.5165 8.74071C18.5165 8.74071 18.5512 8.23073 18.7363 7.95379C18.9213 7.67686 19.1809 7.5172 19.3704 7.45061C19.5599 7.38327 19.672 7.35529 19.9175 7.34546C20.163 7.33638 20.4491 7.33486 20.4491 7.33486L18.4959 9.29155L18.5165 9.84239C18.5165 9.84239 18.5512 10.3524 18.7363 10.6293C18.9213 10.9062 19.1809 11.0659 19.3704 11.1325C19.5599 11.1998 19.672 11.2278 19.9175 11.2376C20.163 11.2467 20.4491 11.2482 20.4491 11.2482L18.4959 9.29155ZM20.4484 11.2475C20.4484 11.2475 20.7345 11.246 20.98 11.2369C21.2256 11.2278 21.3376 11.1991 21.5271 11.1317C21.7167 11.0644 21.9755 10.9055 22.1613 10.6286C22.3471 10.3516 22.381 9.84163 22.381 9.84163L22.4016 9.29079L20.4484 11.2475ZM20.4484 7.33486L18.4959 9.29155L20.4484 11.2475L22.4009 9.29155L20.4484 7.33486Z" fill="#0047BB"/>
<path d="M14.5893 9.29079L14.61 8.73995C14.61 8.73995 14.6446 8.22996 14.8297 7.95303C15.0148 7.6761 15.2743 7.51646 15.4638 7.44987C15.6533 7.38253 15.7654 7.35453 16.011 7.34469C16.2565 7.33486 16.5426 7.3341 16.5426 7.3341L14.5893 9.29079ZM14.5893 9.29079L14.61 9.84163C14.61 9.84163 14.6446 10.3516 14.8297 10.6286C15.0148 10.9055 15.2743 11.0651 15.4638 11.1317C15.6533 11.1991 15.7654 11.2271 16.011 11.2369C16.2565 11.2467 16.5426 11.2475 16.5426 11.2475L14.5893 9.29079ZM18.4959 9.29155L18.5165 8.74071C18.5165 8.74071 18.5512 8.23073 18.7363 7.95379C18.9213 7.67686 19.1809 7.5172 19.3704 7.45061C19.5599 7.38327 19.672 7.35529 19.9175 7.34546C20.163 7.33638 20.4491 7.33486 20.4491 7.33486L18.4959 9.29155ZM18.4959 9.29155L18.5165 9.84239C18.5165 9.84239 18.5512 10.3524 18.7363 10.6293C18.9213 10.9062 19.1809 11.0659 19.3704 11.1325C19.5599 11.1998 19.672 11.2278 19.9175 11.2376C20.163 11.2467 20.4491 11.2482 20.4491 11.2482L18.4959 9.29155ZM18.4936 9.29003L18.473 8.73919C18.473 8.73919 18.4384 8.22923 18.2533 7.95229C18.0682 7.67536 17.8086 7.5157 17.6199 7.44911C17.4304 7.38177 17.3183 7.35377 17.0728 7.34393C16.8272 7.3341 16.5411 7.33333 16.5411 7.33333L18.4936 9.29003ZM16.5411 11.2467C16.5411 11.2467 16.8272 11.2452 17.0728 11.2361C17.3183 11.2271 17.4304 11.1983 17.6199 11.131C17.8094 11.0636 18.0682 10.9047 18.2533 10.6278C18.4384 10.3509 18.473 9.84089 18.473 9.84089L18.4936 9.29003L16.5411 11.2467ZM16.5411 7.3341L14.5886 9.29079L16.5411 11.2467L18.4936 9.29079L16.5411 7.3341ZM22.4009 9.29155L22.3803 8.74071C22.3803 8.74071 22.3456 8.23073 22.1605 7.95379C21.9755 7.67686 21.7159 7.5172 21.5264 7.45061C21.3369 7.38327 21.2248 7.35529 20.9793 7.34546C20.7338 7.33638 20.4477 7.33486 20.4477 7.33486L22.4009 9.29155ZM20.4484 11.2475C20.4484 11.2475 20.7345 11.246 20.98 11.2369C21.2256 11.2278 21.3376 11.1991 21.5271 11.1317C21.7167 11.0644 21.9755 10.9055 22.1613 10.6286C22.3471 10.3516 22.381 9.84163 22.381 9.84163L22.4016 9.29079L20.4484 11.2475ZM20.4484 7.33486L18.4959 9.29155L20.4484 11.2475L22.4009 9.29155L20.4484 7.33486Z" stroke="#0047BB" stroke-width="0.01" stroke-miterlimit="10"/>
<path d="M28.2637 9.29236L28.2431 8.74152C28.2431 8.74152 28.2084 8.23153 28.0233 7.9546C27.8382 7.67766 27.5787 7.518 27.3892 7.45142C27.1997 7.38408 27.0876 7.35608 26.8421 7.34624C26.5965 7.3364 26.3104 7.33566 26.3104 7.33566L28.2637 9.29236ZM24.3586 9.29236L24.3793 8.74152C24.3793 8.74152 24.4139 8.23153 24.599 7.9546C24.7841 7.67766 25.0436 7.518 25.2324 7.45142C25.4219 7.38408 25.534 7.35608 25.7795 7.34624C26.0251 7.3364 26.3104 7.33566 26.3104 7.33566L24.3586 9.29236L24.3793 9.8432C24.3793 9.8432 24.4139 10.3532 24.599 10.6301C24.7841 10.9071 25.0436 11.0667 25.2324 11.1333C25.4219 11.2006 25.534 11.2286 25.7795 11.2385C26.0251 11.2483 26.3111 11.2491 26.3111 11.2491L24.3586 9.29236ZM26.3111 11.2491C26.3111 11.2491 26.5972 11.2468 26.8428 11.2377C27.0883 11.2286 27.2004 11.1999 27.3899 11.1325C27.5794 11.0652 27.8382 10.9063 28.024 10.6294C28.2091 10.3524 28.2438 9.84244 28.2438 9.84244L28.2644 9.2916L26.3111 11.2491ZM26.3104 7.33566L24.3586 9.29236L26.3111 11.2491L28.2637 9.29236L26.3104 7.33566ZM32.1709 9.2931L32.1503 8.74226C32.1503 8.74226 32.1156 8.23229 31.9306 7.95536C31.7455 7.67843 31.4859 7.51877 31.2972 7.45218C31.1077 7.38484 30.9956 7.35684 30.75 7.347C30.5045 7.33716 30.2184 7.3364 30.2184 7.3364L32.1709 9.2931ZM30.2184 11.2498C30.2184 11.2498 29.9323 11.2483 29.6868 11.2392C29.4412 11.2301 29.3291 11.2014 29.1396 11.134C28.9501 11.0667 28.6913 10.9078 28.5055 10.6309C28.3197 10.3539 28.2858 9.84396 28.2858 9.84396L28.2651 9.2931L30.2184 7.3364C30.2184 7.3364 29.9316 7.33792 29.686 7.347C29.4405 7.35608 29.3284 7.38484 29.1389 7.45218C28.9494 7.51952 28.6906 7.67843 28.5048 7.95536C28.319 8.23229 28.285 8.74226 28.285 8.74226L28.2651 9.2931L30.2184 11.2498ZM30.2184 11.2498C30.2184 11.2498 30.5045 11.2483 30.75 11.2392C30.9956 11.2301 31.1077 11.2014 31.2972 11.134C31.4867 11.0667 31.7455 10.9078 31.9306 10.6309C32.1156 10.3539 32.1503 9.84396 32.1503 9.84396L32.1709 9.2931L30.2184 11.2498ZM30.2184 7.3364L28.2659 9.29386L30.2184 11.2498L32.1709 9.2931L30.2184 7.3364Z" fill="#0047BB"/>
<path d="M28.2637 9.29236L28.2431 8.74152C28.2431 8.74152 28.2084 8.23153 28.0233 7.9546C27.8382 7.67766 27.5787 7.518 27.3892 7.45142C27.1997 7.38408 27.0876 7.35608 26.8421 7.34624C26.5965 7.3364 26.3104 7.33566 26.3104 7.33566M28.2637 9.29236L26.3104 7.33566M28.2637 9.29236L26.3111 11.2491M26.3104 7.33566C26.3104 7.33566 26.0251 7.3364 25.7795 7.34624C25.534 7.35608 25.4219 7.38408 25.2324 7.45142C25.0436 7.518 24.7841 7.67766 24.599 7.9546C24.4139 8.23153 24.3793 8.74152 24.3793 8.74152L24.3586 9.29236M26.3104 7.33566L24.3586 9.29236M24.3586 9.29236L24.3793 9.8432C24.3793 9.8432 24.4139 10.3532 24.599 10.6301C24.7841 10.9071 25.0436 11.0667 25.2324 11.1333C25.4219 11.2006 25.534 11.2286 25.7795 11.2385C26.0251 11.2483 26.3111 11.2491 26.3111 11.2491M24.3586 9.29236L26.3111 11.2491M26.3111 11.2491C26.3111 11.2491 26.5972 11.2468 26.8428 11.2377C27.0883 11.2286 27.2004 11.1999 27.3899 11.1325C27.5794 11.0652 27.8382 10.9063 28.024 10.6294C28.2091 10.3524 28.2438 9.84244 28.2438 9.84244L28.2644 9.2916L26.3111 11.2491ZM32.1709 9.2931L32.1503 8.74226C32.1503 8.74226 32.1156 8.23229 31.9306 7.95536C31.7455 7.67843 31.4859 7.51877 31.2972 7.45218C31.1077 7.38484 30.9956 7.35684 30.75 7.347C30.5045 7.33716 30.2184 7.3364 30.2184 7.3364M32.1709 9.2931L30.2184 7.3364M32.1709 9.2931L32.1503 9.84396C32.1503 9.84396 32.1156 10.3539 31.9306 10.6309C31.7455 10.9078 31.4867 11.0667 31.2972 11.134C31.1077 11.2014 30.9956 11.2301 30.75 11.2392C30.5045 11.2483 30.2184 11.2498 30.2184 11.2498M32.1709 9.2931L30.2184 11.2498M30.2184 7.3364L28.2651 9.2931M30.2184 7.3364C30.2184 7.3364 29.9316 7.33792 29.686 7.347C29.4405 7.35608 29.3284 7.38484 29.1389 7.45218C28.9494 7.51952 28.6906 7.67843 28.5048 7.95536C28.319 8.23229 28.285 8.74226 28.285 8.74226L28.2651 9.2931M30.2184 7.3364L28.2659 9.29386L30.2184 11.2498M30.2184 11.2498C30.2184 11.2498 29.9323 11.2483 29.6868 11.2392C29.4412 11.2301 29.3291 11.2014 29.1396 11.134C28.9501 11.0667 28.6913 10.9078 28.5055 10.6309C28.3197 10.3539 28.2858 9.84396 28.2858 9.84396L28.2651 9.2931M30.2184 11.2498L28.2651 9.2931" stroke="#0047BB" stroke-width="0.01" stroke-miterlimit="10"/>
<path d="M18.4958 19.3088L18.4752 18.7579C18.4752 18.7579 18.4405 18.248 18.2555 17.971C18.0704 17.6941 17.8109 17.5345 17.6214 17.4679C17.4319 17.4005 17.3198 17.3725 17.0742 17.3627C16.8287 17.3536 16.5426 17.3521 16.5426 17.3521L18.4958 19.3088ZM14.5908 19.3088L14.6115 18.7579C14.6115 18.7579 14.6461 18.248 14.8312 17.971C15.0163 17.6941 15.2758 17.5345 15.4653 17.4679C15.6548 17.4005 15.7669 17.3725 16.0124 17.3627C16.258 17.3529 16.5441 17.3521 16.5441 17.3521L14.5908 19.3088L14.6115 19.8596C14.6115 19.8596 14.6461 20.3696 14.8312 20.6465C15.0163 20.9235 15.2758 21.0831 15.4653 21.1497C15.6548 21.2171 15.7669 21.2451 16.0124 21.2549C16.258 21.2647 16.5441 21.2655 16.5441 21.2655L14.5908 19.3088ZM16.5434 21.2647C16.5434 21.2647 16.8294 21.2632 17.0749 21.2541C17.3205 21.2451 17.4326 21.2163 17.6221 21.149C17.8116 21.0816 18.0704 20.9227 18.2562 20.6458C18.442 20.3689 18.4759 19.8589 18.4759 19.8589L18.4966 19.308L16.5434 21.2647ZM16.5426 17.3521L14.5908 19.3088L16.5434 21.2647L18.4958 19.3088L16.5426 17.3521ZM22.4031 19.3095L22.3825 18.7587C22.3825 18.7587 22.3478 18.2487 22.1627 17.9718C21.9777 17.6949 21.7181 17.5352 21.5286 17.4686C21.3391 17.4013 21.227 17.3733 20.9815 17.3634C20.736 17.3536 20.4499 17.3529 20.4499 17.3529L22.4031 19.3095ZM18.4981 19.3095L18.5187 18.7587C18.5187 18.7587 18.5534 18.2487 18.7385 17.9718C18.9235 17.6949 19.1831 17.5352 19.3719 17.4686C19.5614 17.4013 19.6734 17.3733 19.919 17.3634C20.1645 17.3536 20.4499 17.3529 20.4499 17.3529L18.4981 19.3095L18.5187 19.8604C18.5187 19.8604 18.5534 20.3704 18.7385 20.6473C18.9235 20.9242 19.1831 21.0839 19.3719 21.1505C19.5614 21.2178 19.6734 21.2458 19.919 21.2557C20.1645 21.2655 20.4506 21.2662 20.4506 21.2662L18.4981 19.3095ZM20.4506 21.2662C20.4506 21.2662 20.7367 21.2647 20.9822 21.2557C21.2278 21.2466 21.3398 21.2178 21.5293 21.1505C21.7188 21.0831 21.9776 20.9242 22.1635 20.6473C22.3493 20.3704 22.3832 19.8604 22.3832 19.8604L22.4031 19.3095L20.4506 21.2662ZM20.4506 17.3536L18.4981 19.3095L20.4506 21.2662L22.4031 19.3095L20.4506 17.3536Z" fill="#0047BB"/>
<path d="M18.4958 19.3088L18.4752 18.7579C18.4752 18.7579 18.4405 18.248 18.2555 17.971C18.0704 17.6941 17.8109 17.5345 17.6214 17.4679C17.4319 17.4005 17.3198 17.3725 17.0742 17.3627C16.8287 17.3536 16.5426 17.3521 16.5426 17.3521M18.4958 19.3088L16.5426 17.3521M18.4958 19.3088L16.5434 21.2647M16.5426 17.3521L14.5908 19.3088M14.5908 19.3088L14.6115 18.7579C14.6115 18.7579 14.6461 18.248 14.8312 17.971C15.0163 17.6941 15.2758 17.5345 15.4653 17.4679C15.6548 17.4005 15.7669 17.3725 16.0124 17.3627C16.258 17.3529 16.5441 17.3521 16.5441 17.3521L14.5908 19.3088ZM14.5908 19.3088L14.6115 19.8596C14.6115 19.8596 14.6461 20.3696 14.8312 20.6465C15.0163 20.9235 15.2758 21.0831 15.4653 21.1497C15.6548 21.2171 15.7669 21.2451 16.0124 21.2549C16.258 21.2647 16.5441 21.2655 16.5441 21.2655L14.5908 19.3088ZM14.5908 19.3088L16.5434 21.2647M16.5434 21.2647C16.5434 21.2647 16.8294 21.2632 17.0749 21.2541C17.3205 21.2451 17.4326 21.2163 17.6221 21.149C17.8116 21.0816 18.0704 20.9227 18.2562 20.6458C18.442 20.3689 18.4759 19.8589 18.4759 19.8589L18.4966 19.308L16.5434 21.2647ZM22.4031 19.3095L22.3825 18.7587C22.3825 18.7587 22.3478 18.2487 22.1627 17.9718C21.9777 17.6949 21.7181 17.5352 21.5286 17.4686C21.3391 17.4013 21.227 17.3733 20.9815 17.3634C20.736 17.3536 20.4499 17.3529 20.4499 17.3529M22.4031 19.3095L20.4499 17.3529M22.4031 19.3095L22.3832 19.8604C22.3832 19.8604 22.3493 20.3704 22.1635 20.6473C21.9776 20.9242 21.7188 21.0831 21.5293 21.1505C21.3398 21.2178 21.2278 21.2466 20.9822 21.2557C20.7367 21.2647 20.4506 21.2662 20.4506 21.2662M22.4031 19.3095L20.4506 21.2662M22.4031 19.3095L20.4506 17.3536L18.4981 19.3095M20.4499 17.3529C20.4499 17.3529 20.1645 17.3536 19.919 17.3634C19.6734 17.3733 19.5614 17.4013 19.3719 17.4686C19.1831 17.5352 18.9235 17.6949 18.7385 17.9718C18.5534 18.2487 18.5187 18.7587 18.5187 18.7587L18.4981 19.3095M20.4499 17.3529L18.4981 19.3095M18.4981 19.3095L18.5187 19.8604C18.5187 19.8604 18.5534 20.3704 18.7385 20.6473C18.9235 20.9242 19.1831 21.0839 19.3719 21.1505C19.5614 21.2178 19.6734 21.2458 19.919 21.2557C20.1645 21.2655 20.4506 21.2662 20.4506 21.2662M18.4981 19.3095L20.4506 21.2662" stroke="#0047BB" stroke-width="0.01" stroke-miterlimit="10"/>
<path d="M62.4255 9.2916L62.4048 8.74076C62.4048 8.74076 62.3702 8.23077 62.1851 7.95384C62 7.67691 61.7405 7.51725 61.551 7.45066C61.3615 7.38332 61.2494 7.35534 61.0038 7.3455C60.7583 7.33567 60.4722 7.33491 60.4722 7.33491L62.4255 9.2916ZM58.5204 9.29236L58.541 8.74152C58.541 8.74152 58.5757 8.23154 58.7608 7.9546C58.9459 7.67767 59.2054 7.51801 59.3942 7.45142C59.5837 7.38408 59.6957 7.35608 59.9413 7.34624C60.1868 7.33716 60.4729 7.33567 60.4729 7.33567L58.5204 9.29236L58.541 9.8432C58.541 9.8432 58.5757 10.3532 58.7608 10.6301C58.9459 10.9071 59.2054 11.0667 59.3942 11.1333C59.5837 11.2006 59.6957 11.2286 59.9413 11.2385C60.1868 11.2475 60.4729 11.2491 60.4729 11.2491L58.5204 9.29236ZM60.4729 11.2483C60.4729 11.2483 60.759 11.2468 61.0046 11.2377C61.2501 11.2286 61.3622 11.1999 61.5517 11.1325C61.7412 11.0652 62 10.9063 62.1858 10.6294C62.3709 10.3524 62.4056 9.84244 62.4056 9.84244L62.4262 9.2916L60.4729 11.2483ZM60.4729 7.33567L58.5204 9.29236L60.4729 11.2491L62.4255 9.29236L60.4729 7.33567ZM66.3327 9.2931L66.3121 8.74226C66.3121 8.74226 66.2774 8.2323 66.0924 7.95536C65.9073 7.67843 65.6477 7.51877 65.459 7.45219C65.2695 7.38484 65.1574 7.35684 64.9118 7.34701C64.6663 7.33717 64.3802 7.33641 64.3802 7.33641L66.3327 9.2931ZM62.4277 9.2931L62.4483 8.74226C62.4483 8.74226 62.483 8.2323 62.668 7.95536C62.8531 7.67843 63.1127 7.51877 63.3014 7.45219C63.4909 7.38484 63.603 7.35684 63.8486 7.34701C64.0941 7.33717 64.3802 7.33641 64.3802 7.33641L62.4277 9.2931L62.4483 9.84396C62.4483 9.84396 62.483 10.3539 62.668 10.6309C62.8531 10.9078 63.1127 11.0675 63.3014 11.134C63.4909 11.2014 63.603 11.2294 63.8486 11.2392C64.0941 11.2491 64.3802 11.2498 64.3802 11.2498L62.4277 9.2931ZM64.3802 11.2491C64.3802 11.2491 64.6663 11.2475 64.9118 11.2385C65.1574 11.2294 65.2695 11.2006 65.459 11.1333C65.6485 11.0659 65.9073 10.9071 66.0924 10.6301C66.2774 10.3532 66.3121 9.8432 66.3121 9.8432L66.3327 9.29236L64.3802 11.2491ZM64.3802 7.33641L62.4277 9.2931L64.3802 11.2498L66.3327 9.2931L64.3802 7.33641Z" fill="#0047BB"/>
<path d="M58.5204 9.29236L58.541 8.74152C58.541 8.74152 58.5757 8.23154 58.7608 7.9546C58.9459 7.67767 59.2054 7.51801 59.3942 7.45142C59.5837 7.38408 59.6957 7.35608 59.9413 7.34624C60.1868 7.33716 60.4729 7.33567 60.4729 7.33567L58.5204 9.29236ZM58.5204 9.29236L58.541 9.8432C58.541 9.8432 58.5757 10.3532 58.7608 10.6301C58.9459 10.9071 59.2054 11.0667 59.3942 11.1333C59.5837 11.2006 59.6957 11.2286 59.9413 11.2385C60.1868 11.2475 60.4729 11.2491 60.4729 11.2491L58.5204 9.29236ZM62.4277 9.2931L62.4483 8.74226C62.4483 8.74226 62.483 8.2323 62.668 7.95536C62.8531 7.67843 63.1127 7.51877 63.3014 7.45219C63.4909 7.38484 63.603 7.35684 63.8486 7.34701C64.0941 7.33717 64.3802 7.33641 64.3802 7.33641L62.4277 9.2931ZM62.4277 9.2931L62.4483 9.84396C62.4483 9.84396 62.483 10.3539 62.668 10.6309C62.8531 10.9078 63.1127 11.0675 63.3014 11.134C63.4909 11.2014 63.603 11.2294 63.8486 11.2392C64.0941 11.2491 64.3802 11.2498 64.3802 11.2498L62.4277 9.2931ZM62.4255 9.2916L62.4048 8.74076C62.4048 8.74076 62.3702 8.23077 62.1851 7.95384C62 7.67691 61.7405 7.51725 61.551 7.45066C61.3615 7.38332 61.2494 7.35534 61.0038 7.3455C60.7583 7.33567 60.4722 7.33491 60.4722 7.33491L62.4255 9.2916ZM60.4729 11.2483C60.4729 11.2483 60.759 11.2468 61.0046 11.2377C61.2501 11.2286 61.3622 11.1999 61.5517 11.1325C61.7412 11.0652 62 10.9063 62.1858 10.6294C62.3709 10.3524 62.4056 9.84244 62.4056 9.84244L62.4262 9.2916L60.4729 11.2483ZM60.4729 7.33567L58.5204 9.29236L60.4729 11.2491L62.4255 9.29236L60.4729 7.33567ZM66.3327 9.2931L66.3121 8.74226C66.3121 8.74226 66.2774 8.2323 66.0924 7.95536C65.9073 7.67843 65.6477 7.51877 65.459 7.45219C65.2695 7.38484 65.1574 7.35684 64.9118 7.34701C64.6663 7.33717 64.3802 7.33641 64.3802 7.33641L66.3327 9.2931ZM64.3802 11.2491C64.3802 11.2491 64.6663 11.2475 64.9118 11.2385C65.1574 11.2294 65.2695 11.2006 65.459 11.1333C65.6485 11.0659 65.9073 10.9071 66.0924 10.6301C66.2774 10.3532 66.3121 9.8432 66.3121 9.8432L66.3327 9.29236L64.3802 11.2491ZM64.3802 7.33641L62.4277 9.2931L64.3802 11.2498L66.3327 9.2931L64.3802 7.33641Z" stroke="#0047BB" stroke-width="0.01" stroke-miterlimit="10"/>
<path d="M51.6932 19.3104L51.6725 18.7595C51.6725 18.7595 51.6379 18.2495 51.4528 17.9726C51.2677 17.6957 51.0082 17.536 50.8194 17.4694C50.6299 17.4021 50.5178 17.3741 50.2723 17.3643C50.0267 17.3544 49.7406 17.3537 49.7406 17.3537L51.6932 19.3104ZM47.7881 19.3104L47.8087 18.7595C47.8087 18.7595 47.8434 18.2495 48.0285 17.9726C48.2135 17.6957 48.4731 17.536 48.6619 17.4694C48.8514 17.4021 48.9634 17.3741 49.209 17.3643C49.4545 17.3544 49.7406 17.3537 49.7406 17.3537L47.7881 19.3104L47.8087 19.8612C47.8087 19.8612 47.8434 20.3712 48.0285 20.6481C48.2135 20.9251 48.4731 21.0847 48.6619 21.1513C48.8514 21.2186 48.9634 21.2466 49.209 21.2565C49.4545 21.2663 49.7406 21.2671 49.7406 21.2671L47.7881 19.3104ZM49.7406 21.2671C49.7406 21.2671 50.0267 21.2655 50.2723 21.2565C50.5178 21.2474 50.6299 21.2186 50.8194 21.1513C51.0089 21.084 51.2677 20.9251 51.4528 20.6481C51.6379 20.3712 51.6725 19.8612 51.6725 19.8612L51.6932 19.3104L49.7406 21.2671ZM49.7406 17.3544L47.7881 19.3111L49.7406 21.2678L51.6932 19.3111L49.7406 17.3544ZM51.6932 23.2237L51.6725 22.6729C51.6725 22.6729 51.6379 22.1629 51.4528 21.886C51.2677 21.6091 51.0081 21.4494 50.8186 21.3828C50.6291 21.3155 50.5171 21.2875 50.2715 21.2776C50.026 21.2678 49.7399 21.2671 49.7399 21.2671L51.6932 23.2237ZM49.7406 25.1797C49.7406 25.1797 49.4545 25.1782 49.209 25.1691C48.9634 25.16 48.8514 25.1313 48.6619 25.0639C48.4724 24.9966 48.2135 24.8377 48.0285 24.5607C47.8434 24.2838 47.8087 23.7738 47.8087 23.7738L47.7881 23.223L49.7406 21.2663C49.7406 21.2663 49.4545 21.2678 49.209 21.2769C48.9634 21.286 48.8514 21.3147 48.6619 21.3821C48.4724 21.4494 48.2135 21.6083 48.0285 21.8852C47.8434 22.1622 47.8087 22.6721 47.8087 22.6721L47.7881 23.223L49.7406 25.1797ZM49.7406 25.1797C49.7406 25.1797 50.0267 25.1782 50.2723 25.1691C50.5178 25.16 50.6299 25.1313 50.8194 25.0639C51.0089 24.9966 51.2677 24.8377 51.4535 24.5607C51.6393 24.2838 51.6733 23.7738 51.6733 23.7738L51.6939 23.223L49.7406 25.1797ZM49.7406 21.2671L47.7881 23.2237L49.7406 25.1797L51.6932 23.2237L49.7406 21.2671Z" fill="#0047BB"/>
<path d="M47.7881 19.3104L47.8087 18.7595C47.8087 18.7595 47.8434 18.2495 48.0285 17.9726C48.2135 17.6957 48.4731 17.536 48.6619 17.4694C48.8514 17.4021 48.9634 17.3741 49.209 17.3643C49.4545 17.3544 49.7406 17.3537 49.7406 17.3537L47.7881 19.3104ZM47.7881 19.3104L47.8087 19.8612C47.8087 19.8612 47.8434 20.3712 48.0285 20.6481C48.2135 20.9251 48.4731 21.0847 48.6619 21.1513C48.8514 21.2186 48.9634 21.2466 49.209 21.2565C49.4545 21.2663 49.7406 21.2671 49.7406 21.2671L47.7881 19.3104ZM51.6932 19.3104L51.6725 18.7595C51.6725 18.7595 51.6379 18.2495 51.4528 17.9726C51.2677 17.6957 51.0082 17.536 50.8194 17.4694C50.6299 17.4021 50.5178 17.3741 50.2723 17.3643C50.0267 17.3544 49.7406 17.3537 49.7406 17.3537L51.6932 19.3104ZM49.7406 21.2671C49.7406 21.2671 50.0267 21.2655 50.2723 21.2565C50.5178 21.2474 50.6299 21.2186 50.8194 21.1513C51.0089 21.084 51.2677 20.9251 51.4528 20.6481C51.6379 20.3712 51.6725 19.8612 51.6725 19.8612L51.6932 19.3104L49.7406 21.2671ZM49.7406 17.3544L47.7881 19.3111L49.7406 21.2678L51.6932 19.3111L49.7406 17.3544ZM51.6932 23.2237L51.6725 22.6729C51.6725 22.6729 51.6379 22.1629 51.4528 21.886C51.2677 21.6091 51.0081 21.4494 50.8186 21.3828C50.6291 21.3155 50.5171 21.2875 50.2715 21.2776C50.026 21.2678 49.7399 21.2671 49.7399 21.2671L51.6932 23.2237ZM49.7406 25.1797C49.7406 25.1797 49.4545 25.1782 49.209 25.1691C48.9634 25.16 48.8514 25.1313 48.6619 25.0639C48.4724 24.9966 48.2135 24.8377 48.0285 24.5607C47.8434 24.2838 47.8087 23.7738 47.8087 23.7738L47.7881 23.223L49.7406 21.2663C49.7406 21.2663 49.4545 21.2678 49.209 21.2769C48.9634 21.286 48.8514 21.3147 48.6619 21.3821C48.4724 21.4494 48.2135 21.6083 48.0285 21.8852C47.8434 22.1622 47.8087 22.6721 47.8087 22.6721L47.7881 23.223L49.7406 25.1797ZM49.7406 25.1797C49.7406 25.1797 50.0267 25.1782 50.2723 25.1691C50.5178 25.16 50.6299 25.1313 50.8194 25.0639C51.0089 24.9966 51.2677 24.8377 51.4535 24.5607C51.6393 24.2838 51.6733 23.7738 51.6733 23.7738L51.6939 23.223L49.7406 25.1797ZM49.7406 21.2671L47.7881 23.2237L49.7406 25.1797L51.6932 23.2237L49.7406 21.2671Z" stroke="#0047BB" stroke-width="0.01" stroke-miterlimit="10"/>
<path d="M77.0686 19.3104L77.0479 18.7595C77.0479 18.7595 77.0133 18.2495 76.8282 17.9726C76.6432 17.6957 76.3836 17.536 76.1941 17.4694C76.0046 17.4021 75.8925 17.3741 75.647 17.3643C75.4015 17.3544 75.1154 17.3537 75.1154 17.3537L77.0686 19.3104ZM73.1643 19.3104L73.1849 18.7595C73.1849 18.7595 73.2196 18.2495 73.4047 17.9726C73.5898 17.6957 73.8493 17.536 74.0381 17.4694C74.2276 17.4021 74.3397 17.3741 74.5852 17.3643C74.8307 17.3544 75.1168 17.3537 75.1168 17.3537L73.1643 19.3104L73.1849 19.8612C73.1849 19.8612 73.2196 20.3712 73.4047 20.6481C73.5898 20.9251 73.8493 21.0847 74.0381 21.1513C74.2276 21.2186 74.3397 21.2466 74.5852 21.2565C74.8307 21.2663 75.1168 21.2671 75.1168 21.2671L73.1643 19.3104ZM75.1168 21.2671C75.1168 21.2671 75.4029 21.2655 75.6484 21.2565C75.894 21.2474 76.0061 21.2186 76.1956 21.1513C76.3851 21.084 76.6439 20.9251 76.8297 20.6481C77.0155 20.3712 77.0494 19.8612 77.0494 19.8612L77.0701 19.3104L75.1168 21.2671ZM75.1168 17.3544L73.1643 19.3111L75.1168 21.2678L77.0693 19.3111L75.1168 17.3544ZM77.0693 23.2237L77.0487 22.6729C77.0487 22.6729 77.014 22.1629 76.829 21.886C76.6439 21.6091 76.3843 21.4494 76.1948 21.3828C76.0053 21.3155 75.8933 21.2875 75.6477 21.2777C75.4022 21.2678 75.1161 21.2671 75.1161 21.2671L77.0693 23.2237ZM75.1168 25.1797C75.1168 25.1797 74.8307 25.1782 74.5852 25.1691C74.3397 25.16 74.2276 25.1313 74.0381 25.0639C73.8486 24.9966 73.5898 24.8377 73.4047 24.5607C73.2196 24.2838 73.1849 23.7738 73.1849 23.7738L73.1643 23.223L75.1168 21.2663C75.1168 21.2663 74.8307 21.2678 74.5852 21.2769C74.3397 21.286 74.2276 21.3147 74.0381 21.3821C73.8486 21.4494 73.5898 21.6083 73.4047 21.8852C73.2196 22.1622 73.1849 22.6721 73.1849 22.6721L73.1643 23.223L75.1168 25.1797ZM75.1168 25.1797C75.1168 25.1797 75.4029 25.1782 75.6484 25.1691C75.894 25.16 76.0061 25.1313 76.1956 25.0639C76.3851 24.9966 76.6439 24.8377 76.8297 24.5607C77.0148 24.2838 77.0494 23.7738 77.0494 23.7738L77.0701 23.223L75.1168 25.1797ZM75.1168 21.2671L73.1643 23.2237L75.1168 25.1804L77.0693 23.2237L75.1168 21.2671Z" fill="#0047BB"/>
<path d="M73.1643 19.3104L73.1849 18.7595C73.1849 18.7595 73.2196 18.2495 73.4047 17.9726C73.5898 17.6957 73.8493 17.536 74.0381 17.4694C74.2276 17.4021 74.3397 17.3741 74.5852 17.3643C74.8307 17.3544 75.1168 17.3537 75.1168 17.3537L73.1643 19.3104ZM73.1643 19.3104L73.1849 19.8612C73.1849 19.8612 73.2196 20.3712 73.4047 20.6481C73.5898 20.9251 73.8493 21.0847 74.0381 21.1513C74.2276 21.2186 74.3397 21.2466 74.5852 21.2565C74.8307 21.2663 75.1168 21.2671 75.1168 21.2671L73.1643 19.3104ZM77.0686 19.3104L77.0479 18.7595C77.0479 18.7595 77.0133 18.2495 76.8282 17.9726C76.6432 17.6957 76.3836 17.536 76.1941 17.4694C76.0046 17.4021 75.8925 17.3741 75.647 17.3643C75.4015 17.3544 75.1154 17.3537 75.1154 17.3537L77.0686 19.3104ZM75.1168 21.2671C75.1168 21.2671 75.4029 21.2655 75.6484 21.2565C75.894 21.2474 76.0061 21.2186 76.1956 21.1513C76.3851 21.084 76.6439 20.9251 76.8297 20.6481C77.0155 20.3712 77.0494 19.8612 77.0494 19.8612L77.0701 19.3104L75.1168 21.2671ZM75.1168 17.3544L73.1643 19.3111L75.1168 21.2678L77.0693 19.3111L75.1168 17.3544ZM77.0693 23.2237L77.0487 22.6729C77.0487 22.6729 77.014 22.1629 76.829 21.886C76.6439 21.6091 76.3843 21.4494 76.1948 21.3828C76.0053 21.3155 75.8933 21.2875 75.6477 21.2777C75.4022 21.2678 75.1161 21.2671 75.1161 21.2671L77.0693 23.2237ZM75.1168 25.1797C75.1168 25.1797 74.8307 25.1782 74.5852 25.1691C74.3397 25.16 74.2276 25.1313 74.0381 25.0639C73.8486 24.9966 73.5898 24.8377 73.4047 24.5607C73.2196 24.2838 73.1849 23.7738 73.1849 23.7738L73.1643 23.223L75.1168 21.2663C75.1168 21.2663 74.8307 21.2678 74.5852 21.2769C74.3397 21.286 74.2276 21.3147 74.0381 21.3821C73.8486 21.4494 73.5898 21.6083 73.4047 21.8852C73.2196 22.1622 73.1849 22.6721 73.1849 22.6721L73.1643 23.223L75.1168 25.1797ZM75.1168 25.1797C75.1168 25.1797 75.4029 25.1782 75.6484 25.1691C75.894 25.16 76.0061 25.1313 76.1956 25.0639C76.3851 24.9966 76.6439 24.8377 76.8297 24.5607C77.0148 24.2838 77.0494 23.7738 77.0494 23.7738L77.0701 23.223L75.1168 25.1797ZM75.1168 21.2671L73.1643 23.2237L75.1168 25.1804L77.0693 23.2237L75.1168 21.2671Z" stroke="#0047BB" stroke-width="0.01" stroke-miterlimit="10"/>
<path d="M62.4261 33.2418L62.4055 32.6909C62.4055 32.6909 62.3709 32.181 62.1858 31.904C62.0007 31.6271 61.7412 31.4674 61.5517 31.4009C61.3622 31.3335 61.2501 31.3055 61.0045 31.2957C60.759 31.2858 60.4729 31.2851 60.4729 31.2851L62.4261 33.2418ZM60.4737 35.1977C60.4737 35.1977 60.1876 35.1962 59.942 35.1871C59.6965 35.1781 59.5844 35.1493 59.3949 35.082C59.2054 35.0146 58.9466 34.8557 58.7615 34.5788C58.5764 34.3019 58.5417 33.7919 58.5417 33.7919L58.5211 33.241L60.4737 31.2843C60.4737 31.2843 60.1876 31.2858 59.942 31.2949C59.6965 31.304 59.5844 31.3328 59.3949 31.4001C59.2054 31.4674 58.9466 31.6263 58.7615 31.9033C58.5764 32.1802 58.5417 32.6902 58.5417 32.6902L58.5211 33.241L60.4737 35.1977ZM60.4737 35.1977C60.4737 35.1977 60.7597 35.1962 61.0053 35.1871C61.2508 35.1781 61.3629 35.1493 61.5524 35.082C61.7419 35.0146 62.0007 34.8557 62.1865 34.5788C62.3716 34.3019 62.4063 33.7919 62.4063 33.7919L62.4269 33.241L60.4737 35.1977ZM60.4737 31.2851L58.5211 33.2418L60.4737 35.1985L62.4261 33.2418L60.4737 31.2851ZM66.3334 33.2425L66.3128 32.6917C66.3128 32.6917 66.2781 32.1817 66.0931 31.9048C65.908 31.6278 65.6484 31.4682 65.4597 31.4016C65.2702 31.3343 65.1581 31.3063 64.9125 31.2964C64.667 31.2866 64.3809 31.2858 64.3809 31.2858L66.3334 33.2425ZM62.4284 33.2425L62.449 32.6917C62.449 32.6917 62.4837 32.1817 62.6688 31.9048C62.8538 31.6278 63.1134 31.4682 63.3029 31.4016C63.4924 31.3343 63.6045 31.3063 63.85 31.2964C64.0956 31.2866 64.3817 31.2858 64.3817 31.2858L62.4284 33.2425L62.449 33.7934C62.449 33.7934 62.4837 34.3034 62.6688 34.5803C62.8538 34.8572 63.1134 35.0169 63.3029 35.0835C63.4924 35.1508 63.6045 35.1788 63.85 35.1887C64.0956 35.1985 64.3817 35.1992 64.3817 35.1992L62.4284 33.2425ZM64.3809 35.1992C64.3809 35.1992 64.667 35.1977 64.9125 35.1887C65.1581 35.1796 65.2702 35.1508 65.4597 35.0835C65.6492 35.0161 65.908 34.8572 66.0931 34.5803C66.2781 34.3034 66.3128 33.7934 66.3128 33.7934L66.3334 33.2425L64.3809 35.1992ZM64.3809 31.2858L62.4284 33.2425L64.3809 35.1992L66.3334 33.2425L64.3809 31.2858Z" fill="#0047BB"/>
<path d="M62.4284 33.2425L62.449 32.6917C62.449 32.6917 62.4837 32.1817 62.6688 31.9048C62.8538 31.6278 63.1134 31.4682 63.3029 31.4016C63.4924 31.3343 63.6045 31.3063 63.85 31.2964C64.0956 31.2866 64.3817 31.2858 64.3817 31.2858L62.4284 33.2425ZM62.4284 33.2425L62.449 33.7934C62.449 33.7934 62.4837 34.3034 62.6688 34.5803C62.8538 34.8572 63.1134 35.0169 63.3029 35.0835C63.4924 35.1508 63.6045 35.1788 63.85 35.1887C64.0956 35.1985 64.3817 35.1992 64.3817 35.1992L62.4284 33.2425ZM62.4261 33.2418L62.4055 32.6909C62.4055 32.6909 62.3709 32.181 62.1858 31.904C62.0007 31.6271 61.7412 31.4674 61.5517 31.4009C61.3622 31.3335 61.2501 31.3055 61.0045 31.2957C60.759 31.2858 60.4729 31.2851 60.4729 31.2851L62.4261 33.2418ZM60.4737 35.1977C60.4737 35.1977 60.1876 35.1962 59.942 35.1871C59.6965 35.1781 59.5844 35.1493 59.3949 35.082C59.2054 35.0146 58.9466 34.8557 58.7615 34.5788C58.5764 34.3019 58.5417 33.7919 58.5417 33.7919L58.5211 33.241L60.4737 31.2843C60.4737 31.2843 60.1876 31.2858 59.942 31.2949C59.6965 31.304 59.5844 31.3328 59.3949 31.4001C59.2054 31.4674 58.9466 31.6263 58.7615 31.9033C58.5764 32.1802 58.5417 32.6902 58.5417 32.6902L58.5211 33.241L60.4737 35.1977ZM60.4737 35.1977C60.4737 35.1977 60.7597 35.1962 61.0053 35.1871C61.2508 35.1781 61.3629 35.1493 61.5524 35.082C61.7419 35.0146 62.0007 34.8557 62.1865 34.5788C62.3716 34.3019 62.4063 33.7919 62.4063 33.7919L62.4269 33.241L60.4737 35.1977ZM60.4737 31.2851L58.5211 33.2418L60.4737 35.1985L62.4261 33.2418L60.4737 31.2851ZM66.3334 33.2425L66.3128 32.6917C66.3128 32.6917 66.2781 32.1817 66.0931 31.9048C65.908 31.6278 65.6484 31.4682 65.4597 31.4016C65.2702 31.3343 65.1581 31.3063 64.9125 31.2964C64.667 31.2866 64.3809 31.2858 64.3809 31.2858L66.3334 33.2425ZM64.3809 35.1992C64.3809 35.1992 64.667 35.1977 64.9125 35.1887C65.1581 35.1796 65.2702 35.1508 65.4597 35.0835C65.6492 35.0161 65.908 34.8572 66.0931 34.5803C66.2781 34.3034 66.3128 33.7934 66.3128 33.7934L66.3334 33.2425L64.3809 35.1992ZM64.3809 31.2858L62.4284 33.2425L64.3809 35.1992L66.3334 33.2425L64.3809 31.2858Z" stroke="#0047BB" stroke-width="0.01" stroke-miterlimit="10"/>
<path d="M96.6042 9.29079L96.5835 8.73995C96.5835 8.73995 96.5488 8.22996 96.3637 7.95303C96.1787 7.67609 95.9191 7.51646 95.7304 7.44987C95.5409 7.38253 95.4288 7.35453 95.1833 7.34469C94.9377 7.33485 94.6516 7.33409 94.6516 7.33409L96.6042 9.29079ZM92.6998 9.29079L92.7205 8.73995C92.7205 8.73995 92.7551 8.22996 92.9402 7.95303C93.1253 7.67609 93.3848 7.51646 93.5743 7.44987C93.7638 7.38253 93.8759 7.35453 94.1215 7.34469C94.367 7.33485 94.6531 7.33409 94.6531 7.33409L92.6998 9.29079L92.7205 9.84163C92.7205 9.84163 92.7551 10.3516 92.9402 10.6285C93.1253 10.9055 93.3848 11.0651 93.5743 11.1317C93.7638 11.1991 93.8759 11.227 94.1215 11.2369C94.367 11.2467 94.6531 11.2475 94.6531 11.2475L92.6998 9.29079ZM94.6523 11.2475C94.6523 11.2475 94.9384 11.246 95.184 11.2369C95.4295 11.2278 95.5416 11.1991 95.7311 11.1317C95.9206 11.0644 96.1794 10.9055 96.3645 10.6285C96.5496 10.3516 96.5842 9.84163 96.5842 9.84163L96.6049 9.29079L94.6523 11.2475ZM94.6516 7.33485L92.6991 9.29155L94.6516 11.2482L96.6042 9.29155L94.6516 7.33485ZM96.6049 13.2042L96.5842 12.6533C96.5842 12.6533 96.5496 12.1434 96.3645 11.8664C96.1794 11.5895 95.9199 11.4298 95.7304 11.3633C95.5409 11.2959 95.4288 11.2679 95.1833 11.2581C94.9377 11.2482 94.6516 11.2475 94.6516 11.2475L96.6049 13.2042ZM92.6998 13.2042L92.7205 12.6533C92.7205 12.6533 92.7551 12.1434 92.9402 11.8664C93.1253 11.5895 93.3848 11.4298 93.5736 11.3633C93.7631 11.2959 93.8752 11.2679 94.1207 11.2581C94.3662 11.2482 94.6523 11.2475 94.6523 11.2475L92.6998 13.2042L92.7205 13.755C92.7205 13.755 92.7551 14.265 92.9402 14.5419C93.1253 14.8189 93.3848 14.9785 93.5736 15.0451C93.7631 15.1125 93.8752 15.1405 94.1207 15.1503C94.3662 15.1601 94.6523 15.1609 94.6523 15.1609L92.6998 13.2042ZM94.6523 15.1601C94.6523 15.1601 94.9384 15.1586 95.184 15.1495C95.4295 15.1405 95.5416 15.1117 95.7311 15.0444C95.9206 14.977 96.1794 14.8181 96.3652 14.5412C96.5503 14.2642 96.585 13.7543 96.585 13.7543L96.6056 13.2034L94.6523 15.1601ZM94.6523 11.2475L92.6998 13.2042L94.6523 15.1609L96.6049 13.2042L94.6523 11.2475Z" fill="#0047BB"/>
<path d="M92.6998 9.29079L92.7205 8.73995C92.7205 8.73995 92.7551 8.22996 92.9402 7.95303C93.1253 7.67609 93.3848 7.51646 93.5743 7.44987C93.7638 7.38253 93.8759 7.35453 94.1215 7.34469C94.367 7.33485 94.6531 7.33409 94.6531 7.33409L92.6998 9.29079ZM92.6998 9.29079L92.7205 9.84163C92.7205 9.84163 92.7551 10.3516 92.9402 10.6285C93.1253 10.9055 93.3848 11.0651 93.5743 11.1317C93.7638 11.1991 93.8759 11.227 94.1215 11.2369C94.367 11.2467 94.6531 11.2475 94.6531 11.2475L92.6998 9.29079ZM92.6998 13.2042L92.7205 12.6533C92.7205 12.6533 92.7551 12.1434 92.9402 11.8664C93.1253 11.5895 93.3848 11.4298 93.5736 11.3633C93.7631 11.2959 93.8752 11.2679 94.1207 11.2581C94.3662 11.2482 94.6523 11.2475 94.6523 11.2475L92.6998 13.2042ZM92.6998 13.2042L92.7205 13.755C92.7205 13.755 92.7551 14.265 92.9402 14.5419C93.1253 14.8189 93.3848 14.9785 93.5736 15.0451C93.7631 15.1125 93.8752 15.1405 94.1207 15.1503C94.3662 15.1601 94.6523 15.1609 94.6523 15.1609L92.6998 13.2042ZM96.6042 9.29079L96.5835 8.73995C96.5835 8.73995 96.5488 8.22996 96.3637 7.95303C96.1787 7.67609 95.9191 7.51646 95.7304 7.44987C95.5409 7.38253 95.4288 7.35453 95.1833 7.34469C94.9377 7.33485 94.6516 7.33409 94.6516 7.33409L96.6042 9.29079ZM94.6523 11.2475C94.6523 11.2475 94.9384 11.246 95.184 11.2369C95.4295 11.2278 95.5416 11.1991 95.7311 11.1317C95.9206 11.0644 96.1794 10.9055 96.3645 10.6285C96.5496 10.3516 96.5842 9.84163 96.5842 9.84163L96.6049 9.29079L94.6523 11.2475ZM94.6516 7.33485L92.6991 9.29155L94.6516 11.2482L96.6042 9.29155L94.6516 7.33485ZM96.6049 13.2042L96.5842 12.6533C96.5842 12.6533 96.5496 12.1434 96.3645 11.8664C96.1794 11.5895 95.9199 11.4298 95.7304 11.3633C95.5409 11.2959 95.4288 11.2679 95.1833 11.2581C94.9377 11.2482 94.6516 11.2475 94.6516 11.2475L96.6049 13.2042ZM94.6523 15.1601C94.6523 15.1601 94.9384 15.1586 95.184 15.1495C95.4295 15.1405 95.5416 15.1117 95.7311 15.0444C95.9206 14.977 96.1794 14.8181 96.3652 14.5412C96.5503 14.2642 96.585 13.7543 96.585 13.7543L96.6056 13.2034L94.6523 15.1601ZM94.6523 11.2475L92.6998 13.2042L94.6523 15.1609L96.6049 13.2042L94.6523 11.2475Z" stroke="#0047BB" stroke-width="0.01" stroke-miterlimit="10"/>
<path d="M94.6496 17.3521C94.6496 17.3521 94.9356 17.3536 95.1812 17.3627C95.4267 17.3718 95.5388 17.4005 95.7283 17.4679C95.9178 17.5352 96.1766 17.6941 96.3624 17.971C96.5482 18.248 96.5821 18.7579 96.5821 18.7579L96.6028 19.3088L94.6496 17.3521ZM92.697 19.3088L92.7176 18.7579C92.7176 18.7579 92.7523 18.248 92.9374 17.971C93.1225 17.6941 93.382 17.5345 93.5708 17.4679C93.7603 17.4005 93.8724 17.3725 94.1179 17.3627C94.3635 17.3529 94.6496 17.3521 94.6496 17.3521L92.697 19.3088L92.7176 19.8596C92.7176 19.8596 92.7523 20.3696 92.9374 20.6465C93.1225 20.9235 93.382 21.0831 93.5708 21.1497C93.7603 21.2171 93.8724 21.2451 94.1179 21.2549C94.3635 21.2647 94.6496 21.2655 94.6496 21.2655L92.697 19.3088ZM94.6496 21.2647C94.6496 21.2647 94.9356 21.2632 95.1812 21.2541C95.4267 21.2451 95.5388 21.2163 95.7283 21.149C95.9178 21.0816 96.1766 20.9227 96.3624 20.6458C96.5482 20.3689 96.5821 19.8589 96.5821 19.8589L96.6028 19.308L94.6496 21.2647ZM94.6496 17.3521L92.697 19.3088L94.6496 21.2655L96.602 19.3088L94.6496 17.3521ZM96.602 23.2214L96.5814 22.6706C96.5814 22.6706 96.5467 22.1606 96.3617 21.8837C96.1766 21.6067 95.9171 21.4471 95.7276 21.3805C95.5381 21.3132 95.426 21.2852 95.1804 21.2753C94.9349 21.2655 94.6488 21.2647 94.6488 21.2647L96.602 23.2214ZM92.697 23.2214L92.7176 22.6706C92.7176 22.6706 92.7523 22.1606 92.9374 21.8837C93.1225 21.6067 93.382 21.4471 93.5708 21.3805C93.7603 21.3132 93.8724 21.2852 94.1179 21.2753C94.3635 21.2655 94.6496 21.2647 94.6496 21.2647L92.697 23.2214L92.7176 23.7723C92.7176 23.7723 92.7523 24.2823 92.9374 24.5592C93.1225 24.8361 93.382 24.9958 93.5708 25.0624C93.7603 25.1297 93.8724 25.1577 94.1179 25.1675C94.3635 25.1774 94.6496 25.1781 94.6496 25.1781L92.697 23.2214ZM94.6496 25.1781C94.6496 25.1781 94.9356 25.1766 95.1812 25.1675C95.4267 25.1585 95.5388 25.1297 95.7283 25.0624C95.9178 24.995 96.1766 24.8361 96.3624 24.5592C96.5482 24.2823 96.5821 23.7723 96.5821 23.7723L96.6028 23.2214L94.6496 25.1781ZM94.6496 21.2655L92.697 23.2222L94.6496 25.1789L96.602 23.2222L94.6496 21.2655Z" fill="#0047BB"/>
<path d="M92.697 19.3088L92.7176 18.7579C92.7176 18.7579 92.7523 18.248 92.9374 17.971C93.1225 17.6941 93.382 17.5345 93.5708 17.4679C93.7603 17.4005 93.8724 17.3725 94.1179 17.3627C94.3635 17.3529 94.6496 17.3521 94.6496 17.3521L92.697 19.3088ZM92.697 19.3088L92.7176 19.8596C92.7176 19.8596 92.7523 20.3696 92.9374 20.6465C93.1225 20.9235 93.382 21.0831 93.5708 21.1497C93.7603 21.2171 93.8724 21.2451 94.1179 21.2549C94.3635 21.2647 94.6496 21.2655 94.6496 21.2655L92.697 19.3088ZM92.697 23.2214L92.7176 22.6706C92.7176 22.6706 92.7523 22.1606 92.9374 21.8837C93.1225 21.6067 93.382 21.4471 93.5708 21.3805C93.7603 21.3132 93.8724 21.2852 94.1179 21.2753C94.3635 21.2655 94.6496 21.2647 94.6496 21.2647L92.697 23.2214ZM92.697 23.2214L92.7176 23.7723C92.7176 23.7723 92.7523 24.2823 92.9374 24.5592C93.1225 24.8361 93.382 24.9958 93.5708 25.0624C93.7603 25.1297 93.8724 25.1577 94.1179 25.1675C94.3635 25.1774 94.6496 25.1781 94.6496 25.1781L92.697 23.2214ZM94.6496 17.3521C94.6496 17.3521 94.9356 17.3536 95.1812 17.3627C95.4267 17.3718 95.5388 17.4005 95.7283 17.4679C95.9178 17.5352 96.1766 17.6941 96.3624 17.971C96.5482 18.248 96.5821 18.7579 96.5821 18.7579L96.6028 19.3088L94.6496 17.3521ZM94.6496 21.2647C94.6496 21.2647 94.9356 21.2632 95.1812 21.2541C95.4267 21.2451 95.5388 21.2163 95.7283 21.149C95.9178 21.0816 96.1766 20.9227 96.3624 20.6458C96.5482 20.3689 96.5821 19.8589 96.5821 19.8589L96.6028 19.308L94.6496 21.2647ZM94.6496 17.3521L92.697 19.3088L94.6496 21.2655L96.602 19.3088L94.6496 17.3521ZM96.602 23.2214L96.5814 22.6706C96.5814 22.6706 96.5467 22.1606 96.3617 21.8837C96.1766 21.6067 95.9171 21.4471 95.7276 21.3805C95.5381 21.3132 95.426 21.2852 95.1804 21.2753C94.9349 21.2655 94.6488 21.2647 94.6488 21.2647L96.602 23.2214ZM94.6496 25.1781C94.6496 25.1781 94.9356 25.1766 95.1812 25.1675C95.4267 25.1585 95.5388 25.1297 95.7283 25.0624C95.9178 24.995 96.1766 24.8361 96.3624 24.5592C96.5482 24.2823 96.5821 23.7723 96.5821 23.7723L96.6028 23.2214L94.6496 25.1781ZM94.6496 21.2655L92.697 23.2222L94.6496 25.1789L96.602 23.2222L94.6496 21.2655Z" stroke="#0047BB" stroke-width="0.01" stroke-miterlimit="10"/>
<path d="M94.651 27.3702C94.651 27.3702 94.9371 27.3717 95.1826 27.3808C95.4282 27.3899 95.5402 27.4186 95.7297 27.4859C95.9192 27.5533 96.178 27.7122 96.3639 27.9891C96.5489 28.266 96.5836 28.776 96.5836 28.776L96.6043 29.3269L94.651 27.3702ZM92.6985 29.3269L92.7191 28.776C92.7191 28.776 92.7538 28.266 92.9389 27.9891C93.1239 27.7122 93.3835 27.5525 93.573 27.4859C93.7625 27.4186 93.8746 27.3906 94.1201 27.3808C94.3656 27.3717 94.6517 27.3702 94.6517 27.3702L92.6985 29.3269L92.7191 29.8777C92.7191 29.8777 92.7538 30.3877 92.9389 30.6646C93.1239 30.9416 93.3835 31.1012 93.573 31.1678C93.7625 31.2351 93.8746 31.2631 94.1201 31.273C94.3656 31.282 94.6517 31.2836 94.6517 31.2836L92.6985 29.3269ZM94.651 31.2828C94.651 31.2828 94.9371 31.2813 95.1826 31.2722C95.4282 31.2631 95.5402 31.2344 95.7297 31.1671C95.9192 31.0997 96.178 30.9408 96.3639 30.6639C96.5489 30.3869 96.5836 29.877 96.5836 29.877L96.6043 29.3261L94.651 31.2828ZM94.651 27.3702L92.6985 29.3269L94.651 31.2836L96.6035 29.3269L94.651 27.3702ZM96.6035 33.2395L96.5829 32.6887C96.5829 32.6887 96.5482 32.1787 96.3631 31.9017C96.1781 31.6248 95.9185 31.4652 95.7297 31.3986C95.5402 31.3312 95.4282 31.3032 95.1826 31.2934C94.9371 31.2843 94.651 31.2828 94.651 31.2828L96.6035 33.2395ZM92.6985 33.2395L92.7191 32.6887C92.7191 32.6887 92.7538 32.1787 92.9389 31.9017C93.1239 31.6248 93.3835 31.4652 93.573 31.3986C93.7625 31.3312 93.8746 31.3032 94.1201 31.2934C94.3656 31.2836 94.6517 31.2828 94.6517 31.2828L92.6985 33.2395L92.7191 33.7903C92.7191 33.7903 92.7538 34.3003 92.9389 34.5773C93.1239 34.8542 93.3835 35.0139 93.573 35.0804C93.7625 35.1478 93.8746 35.1758 94.1201 35.1856C94.3656 35.1954 94.6517 35.1962 94.6517 35.1962L92.6985 33.2395ZM94.651 35.1962C94.651 35.1962 94.9371 35.1947 95.1826 35.1856C95.4282 35.1765 95.5402 35.1478 95.7297 35.0804C95.9192 35.0131 96.1781 34.8542 96.3631 34.5773C96.5482 34.3003 96.5829 33.7903 96.5829 33.7903L96.6035 33.2395L94.651 35.1962ZM94.651 31.2836L92.6985 33.2403L94.651 35.197L96.6035 33.2403L94.651 31.2836Z" fill="#0047BB"/>
<path d="M92.6985 29.3269L92.7191 28.776C92.7191 28.776 92.7538 28.266 92.9389 27.9891C93.1239 27.7122 93.3835 27.5525 93.573 27.4859C93.7625 27.4186 93.8746 27.3906 94.1201 27.3808C94.3656 27.3717 94.6517 27.3702 94.6517 27.3702L92.6985 29.3269ZM92.6985 29.3269L92.7191 29.8777C92.7191 29.8777 92.7538 30.3877 92.9389 30.6646C93.1239 30.9416 93.3835 31.1012 93.573 31.1678C93.7625 31.2351 93.8746 31.2631 94.1201 31.273C94.3656 31.282 94.6517 31.2836 94.6517 31.2836L92.6985 29.3269ZM92.6985 33.2395L92.7191 32.6887C92.7191 32.6887 92.7538 32.1787 92.9389 31.9017C93.1239 31.6248 93.3835 31.4652 93.573 31.3986C93.7625 31.3312 93.8746 31.3032 94.1201 31.2934C94.3656 31.2836 94.6517 31.2828 94.6517 31.2828L92.6985 33.2395ZM92.6985 33.2395L92.7191 33.7903C92.7191 33.7903 92.7538 34.3003 92.9389 34.5773C93.1239 34.8542 93.3835 35.0139 93.573 35.0804C93.7625 35.1478 93.8746 35.1758 94.1201 35.1856C94.3656 35.1954 94.6517 35.1962 94.6517 35.1962L92.6985 33.2395ZM94.651 27.3702C94.651 27.3702 94.9371 27.3717 95.1826 27.3808C95.4282 27.3899 95.5402 27.4186 95.7297 27.4859C95.9192 27.5533 96.178 27.7122 96.3639 27.9891C96.5489 28.266 96.5836 28.776 96.5836 28.776L96.6043 29.3269L94.651 27.3702ZM94.651 31.2828C94.651 31.2828 94.9371 31.2813 95.1826 31.2722C95.4282 31.2631 95.5402 31.2344 95.7297 31.1671C95.9192 31.0997 96.178 30.9408 96.3639 30.6639C96.5489 30.3869 96.5836 29.877 96.5836 29.877L96.6043 29.3261L94.651 31.2828ZM94.651 27.3702L92.6985 29.3269L94.651 31.2836L96.6035 29.3269L94.651 27.3702ZM96.6035 33.2395L96.5829 32.6887C96.5829 32.6887 96.5482 32.1787 96.3631 31.9017C96.1781 31.6248 95.9185 31.4652 95.7297 31.3986C95.5402 31.3312 95.4282 31.3032 95.1826 31.2934C94.9371 31.2843 94.651 31.2828 94.651 31.2828L96.6035 33.2395ZM94.651 35.1962C94.651 35.1962 94.9371 35.1947 95.1826 35.1856C95.4282 35.1765 95.5402 35.1478 95.7297 35.0804C95.9192 35.0131 96.1781 34.8542 96.3631 34.5773C96.5482 34.3003 96.5829 33.7903 96.5829 33.7903L96.6035 33.2395L94.651 35.1962ZM94.651 31.2836L92.6985 33.2403L94.651 35.197L96.6035 33.2403L94.651 31.2836Z" stroke="#0047BB" stroke-width="0.01" stroke-miterlimit="10"/>
<path d="M102.46 9.29384L102.44 8.743C102.44 8.743 102.405 8.23302 102.22 7.95608C102.035 7.67915 101.775 7.51951 101.586 7.45293C101.396 7.38558 101.284 7.35758 101.039 7.34775C100.793 7.33791 100.507 7.33715 100.507 7.33715L102.46 9.29384ZM98.5553 9.29384L98.5759 8.743C98.5759 8.743 98.6106 8.23302 98.7957 7.95608C98.9807 7.67915 99.2403 7.51951 99.4291 7.45293C99.6186 7.38558 99.7306 7.35758 99.9762 7.34775C100.222 7.33791 100.508 7.33715 100.508 7.33715L98.5553 9.29384L98.5759 9.84468C98.5759 9.84468 98.6106 10.3547 98.7957 10.6316C98.9807 10.9085 99.2403 11.0682 99.4291 11.1348C99.6186 11.2021 99.7306 11.2301 99.9762 11.24C100.222 11.2498 100.508 11.2505 100.508 11.2505L98.5553 9.29384ZM100.508 11.2498C100.508 11.2498 100.794 11.2483 101.039 11.2392C101.285 11.2301 101.397 11.2014 101.587 11.134C101.776 11.0667 102.035 10.9078 102.221 10.6308C102.406 10.3539 102.44 9.84394 102.44 9.84394L102.461 9.29308L100.508 11.2498ZM100.508 7.33715L98.5553 9.29384L100.508 11.2505L102.46 9.29384L100.508 7.33715ZM106.368 9.2946L106.347 8.74377C106.347 8.74377 106.312 8.23378 106.127 7.95684C105.942 7.67991 105.683 7.52025 105.494 7.45366C105.304 7.38632 105.192 7.35834 104.947 7.34851C104.701 7.33867 104.415 7.33791 104.415 7.33791L106.368 9.2946ZM102.463 9.2946L102.483 8.74377C102.483 8.74377 102.518 8.23378 102.703 7.95684C102.888 7.67991 103.148 7.52025 103.337 7.45366C103.527 7.38632 103.639 7.35834 103.884 7.34851C104.13 7.33867 104.416 7.33791 104.416 7.33791L102.463 9.2946L102.483 9.84544C102.483 9.84544 102.518 10.3554 102.703 10.6324C102.888 10.9093 103.148 11.069 103.337 11.1355C103.527 11.2029 103.639 11.2309 103.884 11.2407C104.13 11.2505 104.416 11.2513 104.416 11.2513L102.463 9.2946ZM104.415 11.2513C104.415 11.2513 104.701 11.2498 104.947 11.2407C105.192 11.2316 105.304 11.2029 105.494 11.1355C105.683 11.0682 105.942 10.9093 106.127 10.6324C106.312 10.3554 106.347 9.84544 106.347 9.84544L106.368 9.2946L104.415 11.2513ZM104.415 7.33867L102.463 9.29537L104.415 11.2521L106.368 9.29537L104.415 7.33867Z" fill="#0047BB"/>
<path d="M98.5553 9.29384L98.5759 8.743C98.5759 8.743 98.6106 8.23302 98.7957 7.95608C98.9807 7.67915 99.2403 7.51951 99.4291 7.45293C99.6186 7.38558 99.7306 7.35758 99.9762 7.34775C100.222 7.33791 100.508 7.33715 100.508 7.33715L98.5553 9.29384ZM98.5553 9.29384L98.5759 9.84468C98.5759 9.84468 98.6106 10.3547 98.7957 10.6316C98.9807 10.9085 99.2403 11.0682 99.4291 11.1348C99.6186 11.2021 99.7306 11.2301 99.9762 11.24C100.222 11.2498 100.508 11.2505 100.508 11.2505L98.5553 9.29384ZM102.463 9.2946L102.483 8.74377C102.483 8.74377 102.518 8.23378 102.703 7.95684C102.888 7.67991 103.148 7.52025 103.337 7.45366C103.527 7.38632 103.639 7.35834 103.884 7.34851C104.13 7.33867 104.416 7.33791 104.416 7.33791L102.463 9.2946ZM102.463 9.2946L102.483 9.84544C102.483 9.84544 102.518 10.3554 102.703 10.6324C102.888 10.9093 103.148 11.069 103.337 11.1355C103.527 11.2029 103.639 11.2309 103.884 11.2407C104.13 11.2505 104.416 11.2513 104.416 11.2513L102.463 9.2946ZM102.46 9.29384L102.44 8.743C102.44 8.743 102.405 8.23302 102.22 7.95608C102.035 7.67915 101.775 7.51951 101.586 7.45293C101.396 7.38558 101.284 7.35758 101.039 7.34775C100.793 7.33791 100.507 7.33715 100.507 7.33715L102.46 9.29384ZM100.508 11.2498C100.508 11.2498 100.794 11.2483 101.039 11.2392C101.285 11.2301 101.397 11.2014 101.587 11.134C101.776 11.0667 102.035 10.9078 102.221 10.6308C102.406 10.3539 102.44 9.84394 102.44 9.84394L102.461 9.29308L100.508 11.2498ZM100.508 7.33715L98.5553 9.29384L100.508 11.2505L102.46 9.29384L100.508 7.33715ZM106.368 9.2946L106.347 8.74377C106.347 8.74377 106.312 8.23378 106.127 7.95684C105.942 7.67991 105.683 7.52025 105.494 7.45366C105.304 7.38632 105.192 7.35834 104.947 7.34851C104.701 7.33867 104.415 7.33791 104.415 7.33791L106.368 9.2946ZM104.415 11.2513C104.415 11.2513 104.701 11.2498 104.947 11.2407C105.192 11.2316 105.304 11.2029 105.494 11.1355C105.683 11.0682 105.942 10.9093 106.127 10.6324C106.312 10.3554 106.347 9.84544 106.347 9.84544L106.368 9.2946L104.415 11.2513ZM104.415 7.33867L102.463 9.29537L104.415 11.2521L106.368 9.29537L104.415 7.33867Z" stroke="#0047BB" stroke-width="0.01" stroke-miterlimit="10"/>
<path d="M102.462 19.3104L102.441 18.7595C102.441 18.7595 102.407 18.2495 102.221 17.9726C102.036 17.6957 101.777 17.536 101.587 17.4694C101.398 17.4021 101.286 17.3741 101.04 17.3643C100.795 17.3544 100.509 17.3537 100.509 17.3537L102.462 19.3104ZM100.509 21.2663C100.509 21.2663 100.223 21.2648 99.9777 21.2557C99.7321 21.2466 99.62 21.2179 99.4305 21.1505C99.241 21.0832 98.9823 20.9243 98.7972 20.6474C98.6121 20.3704 98.5774 19.8604 98.5774 19.8604L98.5568 19.3096L100.509 17.3529C100.509 17.3529 100.223 17.3544 99.9777 17.3635C99.7321 17.3726 99.62 17.4013 99.4305 17.4687C99.241 17.536 98.9823 17.6949 98.7972 17.9718C98.6121 18.2488 98.5774 18.7588 98.5774 18.7588L98.5568 19.3096L100.509 21.2663ZM100.509 21.2663C100.509 21.2663 100.795 21.2648 101.041 21.2557C101.286 21.2466 101.399 21.2179 101.588 21.1505C101.778 21.0832 102.036 20.9243 102.222 20.6474C102.408 20.3704 102.442 19.8604 102.442 19.8604L102.463 19.3096L100.509 21.2663ZM100.509 17.3537L98.5568 19.3104L100.509 21.2671L102.462 19.3104L100.509 17.3537ZM106.369 19.3111L106.348 18.7603C106.348 18.7603 106.314 18.2503 106.129 17.9734C105.944 17.6964 105.684 17.5368 105.495 17.4702C105.306 17.4028 105.194 17.3749 104.948 17.365C104.703 17.3552 104.417 17.3544 104.417 17.3544L106.369 19.3111ZM102.464 19.3111L102.485 18.7603C102.485 18.7603 102.519 18.2503 102.704 17.9734C102.889 17.6964 103.149 17.5368 103.339 17.4702C103.528 17.4028 103.64 17.3749 103.886 17.365C104.131 17.3552 104.417 17.3544 104.417 17.3544L102.464 19.3111L102.485 19.862C102.485 19.862 102.519 20.372 102.704 20.6489C102.889 20.9258 103.149 21.0855 103.339 21.152C103.528 21.2194 103.64 21.2474 103.886 21.2572C104.131 21.2671 104.417 21.2678 104.417 21.2678L102.464 19.3111ZM104.417 21.2678C104.417 21.2678 104.703 21.2663 104.948 21.2572C105.194 21.2481 105.306 21.2194 105.495 21.152C105.685 21.0847 105.944 20.9258 106.129 20.6489C106.314 20.372 106.348 19.862 106.348 19.862L106.369 19.3111L104.417 21.2678ZM104.417 17.3552L102.464 19.3119L104.417 21.2678L106.369 19.3119L104.417 17.3552Z" fill="#0047BB"/>
<path d="M102.464 19.3111L102.485 18.7603C102.485 18.7603 102.519 18.2503 102.704 17.9734C102.889 17.6964 103.149 17.5368 103.339 17.4702C103.528 17.4028 103.64 17.3749 103.886 17.365C104.131 17.3552 104.417 17.3544 104.417 17.3544L102.464 19.3111ZM102.464 19.3111L102.485 19.862C102.485 19.862 102.519 20.372 102.704 20.6489C102.889 20.9258 103.149 21.0855 103.339 21.152C103.528 21.2194 103.64 21.2474 103.886 21.2572C104.131 21.2671 104.417 21.2678 104.417 21.2678L102.464 19.3111ZM102.462 19.3104L102.441 18.7595C102.441 18.7595 102.407 18.2495 102.221 17.9726C102.036 17.6957 101.777 17.536 101.587 17.4694C101.398 17.4021 101.286 17.3741 101.04 17.3643C100.795 17.3544 100.509 17.3537 100.509 17.3537L102.462 19.3104ZM100.509 21.2663C100.509 21.2663 100.223 21.2648 99.9777 21.2557C99.7321 21.2466 99.62 21.2179 99.4305 21.1505C99.241 21.0832 98.9823 20.9243 98.7972 20.6474C98.6121 20.3704 98.5774 19.8604 98.5774 19.8604L98.5568 19.3096L100.509 17.3529C100.509 17.3529 100.223 17.3544 99.9777 17.3635C99.7321 17.3726 99.62 17.4013 99.4305 17.4687C99.241 17.536 98.9823 17.6949 98.7972 17.9718C98.6121 18.2488 98.5774 18.7588 98.5774 18.7588L98.5568 19.3096L100.509 21.2663ZM100.509 21.2663C100.509 21.2663 100.795 21.2648 101.041 21.2557C101.286 21.2466 101.399 21.2179 101.588 21.1505C101.778 21.0832 102.036 20.9243 102.222 20.6474C102.408 20.3704 102.442 19.8604 102.442 19.8604L102.463 19.3096L100.509 21.2663ZM100.509 17.3537L98.5568 19.3104L100.509 21.2671L102.462 19.3104L100.509 17.3537ZM106.369 19.3111L106.348 18.7603C106.348 18.7603 106.314 18.2503 106.129 17.9734C105.944 17.6964 105.684 17.5368 105.495 17.4702C105.306 17.4028 105.194 17.3749 104.948 17.365C104.703 17.3552 104.417 17.3544 104.417 17.3544L106.369 19.3111ZM104.417 21.2678C104.417 21.2678 104.703 21.2663 104.948 21.2572C105.194 21.2481 105.306 21.2194 105.495 21.152C105.685 21.0847 105.944 20.9258 106.129 20.6489C106.314 20.372 106.348 19.862 106.348 19.862L106.369 19.3111L104.417 21.2678ZM104.417 17.3552L102.464 19.3119L104.417 21.2678L106.369 19.3119L104.417 17.3552Z" stroke="#0047BB" stroke-width="0.01" stroke-miterlimit="10"/>
<path d="M112.218 12.2046L112.197 11.6538C112.197 11.6538 112.163 11.1438 111.977 10.8669C111.792 10.5899 111.533 10.4303 111.343 10.3637C111.154 10.2963 111.042 10.2683 110.796 10.2585C110.551 10.2487 110.265 10.2479 110.265 10.2479L112.218 12.2046ZM108.313 12.2046L108.333 11.6538C108.333 11.6538 108.368 11.1438 108.553 10.8669C108.738 10.5899 108.998 10.4303 109.187 10.3637C109.376 10.2963 109.488 10.2683 109.734 10.2585C109.979 10.2494 110.265 10.2479 110.265 10.2479L108.313 12.2046L108.333 12.7555C108.333 12.7555 108.368 13.2655 108.553 13.5424C108.738 13.8193 108.998 13.979 109.187 14.0455C109.376 14.1129 109.488 14.1409 109.734 14.1507C109.979 14.1598 110.265 14.1613 110.265 14.1613L108.313 12.2046ZM110.265 14.1613C110.265 14.1613 110.551 14.1598 110.797 14.1507C111.042 14.1416 111.155 14.1129 111.344 14.0455C111.534 13.9782 111.792 13.8193 111.978 13.5424C112.163 13.2655 112.198 12.7555 112.198 12.7555L112.219 12.2046L110.265 14.1613ZM110.265 10.2487L108.313 12.2054L110.265 14.1621L112.218 12.2054L110.265 10.2487ZM112.218 16.118L112.197 15.5672C112.197 15.5672 112.163 15.0572 111.977 14.7803C111.792 14.5033 111.533 14.3437 111.343 14.2771C111.154 14.2097 111.042 14.1818 110.796 14.1719C110.551 14.1628 110.265 14.1613 110.265 14.1613L112.218 16.118ZM108.313 16.118L108.334 15.5672C108.334 15.5672 108.369 15.0572 108.554 14.7803C108.739 14.5033 108.998 14.3437 109.188 14.2771C109.377 14.2097 109.49 14.1818 109.735 14.1719C109.981 14.1628 110.267 14.1613 110.267 14.1613L108.313 16.118L108.334 16.6689C108.334 16.6689 108.369 17.1788 108.554 17.4558C108.739 17.7327 108.998 17.8923 109.188 17.9589C109.377 18.0263 109.49 18.0543 109.735 18.0641C109.981 18.0732 110.267 18.0747 110.267 18.0747L108.313 16.118ZM110.265 18.074C110.265 18.074 110.551 18.0724 110.797 18.0634C111.042 18.0543 111.155 18.0255 111.344 17.9582C111.534 17.8909 111.792 17.7319 111.978 17.455C112.163 17.1781 112.198 16.6681 112.198 16.6681L112.219 16.1173L110.265 18.074ZM110.265 14.1613L108.313 16.118L110.265 18.0747L112.218 16.118L110.265 14.1613Z" fill="#0047BB"/>
<path d="M108.313 12.2046L108.333 11.6538C108.333 11.6538 108.368 11.1438 108.553 10.8669C108.738 10.5899 108.998 10.4303 109.187 10.3637C109.376 10.2963 109.488 10.2683 109.734 10.2585C109.979 10.2494 110.265 10.2479 110.265 10.2479L108.313 12.2046ZM108.313 12.2046L108.333 12.7555C108.333 12.7555 108.368 13.2655 108.553 13.5424C108.738 13.8193 108.998 13.979 109.187 14.0455C109.376 14.1129 109.488 14.1409 109.734 14.1507C109.979 14.1598 110.265 14.1613 110.265 14.1613L108.313 12.2046ZM108.313 16.118L108.334 15.5672C108.334 15.5672 108.369 15.0572 108.554 14.7803C108.739 14.5033 108.998 14.3437 109.188 14.2771C109.377 14.2097 109.49 14.1818 109.735 14.1719C109.981 14.1628 110.267 14.1613 110.267 14.1613L108.313 16.118ZM108.313 16.118L108.334 16.6689C108.334 16.6689 108.369 17.1788 108.554 17.4558C108.739 17.7327 108.998 17.8923 109.188 17.9589C109.377 18.0263 109.49 18.0543 109.735 18.0641C109.981 18.0732 110.267 18.0747 110.267 18.0747L108.313 16.118ZM112.218 12.2046L112.197 11.6538C112.197 11.6538 112.163 11.1438 111.977 10.8669C111.792 10.5899 111.533 10.4303 111.343 10.3637C111.154 10.2963 111.042 10.2683 110.796 10.2585C110.551 10.2487 110.265 10.2479 110.265 10.2479L112.218 12.2046ZM110.265 14.1613C110.265 14.1613 110.551 14.1598 110.797 14.1507C111.042 14.1416 111.155 14.1129 111.344 14.0455C111.534 13.9782 111.792 13.8193 111.978 13.5424C112.163 13.2655 112.198 12.7555 112.198 12.7555L112.219 12.2046L110.265 14.1613ZM110.265 10.2487L108.313 12.2054L110.265 14.1621L112.218 12.2054L110.265 10.2487ZM112.218 16.118L112.197 15.5672C112.197 15.5672 112.163 15.0572 111.977 14.7803C111.792 14.5033 111.533 14.3437 111.343 14.2771C111.154 14.2097 111.042 14.1818 110.796 14.1719C110.551 14.1628 110.265 14.1613 110.265 14.1613L112.218 16.118ZM110.265 18.074C110.265 18.074 110.551 18.0724 110.797 18.0634C111.042 18.0543 111.155 18.0255 111.344 17.9582C111.534 17.8909 111.792 17.7319 111.978 17.455C112.163 17.1781 112.198 16.6681 112.198 16.6681L112.219 16.1173L110.265 18.074ZM110.265 14.1613L108.313 16.118L110.265 18.0747L112.218 16.118L110.265 14.1613Z" stroke="#0047BB" stroke-width="0.01" stroke-miterlimit="10"/>
<path d="M112.212 29.3269L112.191 28.776C112.191 28.776 112.157 28.266 111.971 27.9891C111.786 27.7122 111.527 27.5525 111.337 27.4859C111.148 27.4186 111.036 27.3906 110.79 27.3808C110.545 27.3709 110.259 27.3702 110.259 27.3702L112.212 29.3269ZM108.307 29.3269L108.327 28.776C108.327 28.776 108.362 28.266 108.547 27.9891C108.732 27.7122 108.992 27.5525 109.181 27.4859C109.37 27.4186 109.482 27.3906 109.728 27.3808C109.973 27.3709 110.259 27.3702 110.259 27.3702L108.307 29.3269L108.327 29.8777C108.327 29.8777 108.362 30.3877 108.547 30.6646C108.732 30.9416 108.992 31.1012 109.181 31.1678C109.37 31.2351 109.482 31.2631 109.728 31.273C109.973 31.2828 110.259 31.2836 110.259 31.2836L108.307 29.3269ZM110.259 31.2828C110.259 31.2828 110.545 31.2813 110.791 31.2722C111.036 31.2631 111.149 31.2344 111.338 31.1671C111.528 31.0997 111.786 30.9408 111.972 30.6639C112.157 30.3869 112.192 29.877 112.192 29.877L112.213 29.3261L110.259 31.2828ZM110.259 27.3702L108.307 29.3269L110.259 31.2836L112.212 29.3269L110.259 27.3702ZM112.212 33.2395L112.191 32.6887C112.191 32.6887 112.157 32.1787 111.971 31.9017C111.786 31.6248 111.527 31.4652 111.337 31.3986C111.148 31.3312 111.036 31.3032 110.79 31.2934C110.545 31.2843 110.259 31.2828 110.259 31.2828L112.212 33.2395ZM110.259 35.1962C110.259 35.1962 109.973 35.1947 109.728 35.1856C109.482 35.1765 109.37 35.1478 109.181 35.0804C108.991 35.0131 108.732 34.8542 108.546 34.5773C108.361 34.3003 108.327 33.7903 108.327 33.7903L108.306 33.2395L110.259 31.2828C110.259 31.2828 109.972 31.2843 109.727 31.2934C109.481 31.3025 109.369 31.3312 109.18 31.3986C108.99 31.4659 108.731 31.6248 108.546 31.9017C108.361 32.1787 108.326 32.6887 108.326 32.6887L108.305 33.2395L110.259 35.1962ZM110.259 35.1962C110.259 35.1962 110.545 35.1947 110.791 35.1856C111.036 35.1765 111.149 35.1478 111.338 35.0804C111.528 35.0131 111.786 34.8542 111.972 34.5773C112.158 34.3003 112.192 33.7903 112.192 33.7903L112.213 33.2395L110.259 35.1962ZM110.259 31.2836L108.307 33.2403L110.259 35.197L112.212 33.2403L110.259 31.2836Z" fill="#0047BB"/>
<path d="M108.307 29.3269L108.327 28.776C108.327 28.776 108.362 28.266 108.547 27.9891C108.732 27.7122 108.992 27.5525 109.181 27.4859C109.37 27.4186 109.482 27.3906 109.728 27.3808C109.973 27.3709 110.259 27.3702 110.259 27.3702L108.307 29.3269ZM108.307 29.3269L108.327 29.8777C108.327 29.8777 108.362 30.3877 108.547 30.6646C108.732 30.9416 108.992 31.1012 109.181 31.1678C109.37 31.2351 109.482 31.2631 109.728 31.273C109.973 31.2828 110.259 31.2836 110.259 31.2836L108.307 29.3269ZM112.212 29.3269L112.191 28.776C112.191 28.776 112.157 28.266 111.971 27.9891C111.786 27.7122 111.527 27.5525 111.337 27.4859C111.148 27.4186 111.036 27.3906 110.79 27.3808C110.545 27.3709 110.259 27.3702 110.259 27.3702L112.212 29.3269ZM110.259 31.2828C110.259 31.2828 110.545 31.2813 110.791 31.2722C111.036 31.2631 111.149 31.2344 111.338 31.1671C111.528 31.0997 111.786 30.9408 111.972 30.6639C112.157 30.3869 112.192 29.877 112.192 29.877L112.213 29.3261L110.259 31.2828ZM110.259 27.3702L108.307 29.3269L110.259 31.2836L112.212 29.3269L110.259 27.3702ZM112.212 33.2395L112.191 32.6887C112.191 32.6887 112.157 32.1787 111.971 31.9017C111.786 31.6248 111.527 31.4652 111.337 31.3986C111.148 31.3312 111.036 31.3032 110.79 31.2934C110.545 31.2843 110.259 31.2828 110.259 31.2828L112.212 33.2395ZM110.259 35.1962C110.259 35.1962 109.973 35.1947 109.728 35.1856C109.482 35.1765 109.37 35.1478 109.181 35.0804C108.991 35.0131 108.732 34.8542 108.546 34.5773C108.361 34.3003 108.327 33.7903 108.327 33.7903L108.306 33.2395L110.259 31.2828C110.259 31.2828 109.972 31.2843 109.727 31.2934C109.481 31.3025 109.369 31.3312 109.18 31.3986C108.99 31.4659 108.731 31.6248 108.546 31.9017C108.361 32.1787 108.326 32.6887 108.326 32.6887L108.305 33.2395L110.259 35.1962ZM110.259 35.1962C110.259 35.1962 110.545 35.1947 110.791 35.1856C111.036 35.1765 111.149 35.1478 111.338 35.0804C111.528 35.0131 111.786 34.8542 111.972 34.5773C112.158 34.3003 112.192 33.7903 112.192 33.7903L112.213 33.2395L110.259 35.1962ZM110.259 31.2836L108.307 33.2403L110.259 35.197L112.212 33.2403L110.259 31.2836Z" stroke="#0047BB" stroke-width="0.01" stroke-miterlimit="10"/>
<path d="M131.754 9.2984L131.734 8.74757C131.734 8.74757 131.699 8.23758 131.514 7.96064C131.329 7.68371 131.069 7.52405 130.88 7.45746C130.691 7.39012 130.579 7.36214 130.333 7.35231C130.088 7.34247 129.802 7.34171 129.802 7.34171L131.754 9.2984ZM129.802 11.2551C129.802 11.2551 129.516 11.2536 129.27 11.2445C129.024 11.2354 128.912 11.2067 128.723 11.1393C128.533 11.072 128.275 10.9131 128.089 10.6362C127.903 10.3592 127.869 9.84924 127.869 9.84924L127.848 9.2984L129.802 7.34171C129.802 7.34171 129.515 7.34323 129.269 7.35231C129.024 7.36139 128.912 7.39012 128.722 7.45746C128.533 7.52481 128.274 7.68371 128.088 7.96064C127.902 8.23758 127.868 8.74757 127.868 8.74757L127.848 9.2984L129.802 11.2551ZM129.802 11.2551C129.802 11.2551 130.088 11.2536 130.334 11.2445C130.58 11.2354 130.692 11.2067 130.881 11.1393C131.071 11.072 131.329 10.9131 131.515 10.6362C131.7 10.3592 131.734 9.84924 131.734 9.84924L131.754 9.2984L129.802 11.2551ZM129.802 7.34171L127.849 9.29917L129.802 11.2551L131.754 9.2984L129.802 7.34171ZM135.661 9.29991L135.641 8.74907C135.641 8.74907 135.606 8.2391 135.421 7.96217C135.236 7.68523 134.976 7.52557 134.787 7.45899C134.597 7.39165 134.485 7.36365 134.24 7.35381C133.994 7.34473 133.708 7.34321 133.708 7.34321L135.661 9.29991ZM133.709 11.2559C133.709 11.2559 133.423 11.2543 133.177 11.2453C132.932 11.2362 132.82 11.2074 132.63 11.1401C132.441 11.0727 132.182 10.9138 131.996 10.6369C131.81 10.36 131.776 9.85001 131.776 9.85001L131.756 9.29917L133.708 7.34321C133.708 7.34321 133.422 7.34397 133.177 7.35305C132.931 7.36213 132.819 7.39089 132.629 7.45823C132.44 7.52557 132.181 7.68447 131.995 7.96141C131.809 8.23834 131.776 8.74833 131.776 8.74833L131.756 9.29917L133.709 11.2559ZM133.709 11.2559C133.709 11.2559 133.995 11.2543 134.241 11.2453C134.486 11.2362 134.598 11.2074 134.788 11.1401C134.977 11.0727 135.236 10.9138 135.422 10.6369C135.608 10.36 135.642 9.85001 135.642 9.85001L135.662 9.29917L133.709 11.2559ZM133.708 7.34321L131.756 9.29991L133.709 11.2559L135.661 9.29991L133.708 7.34321Z" fill="#0047BB"/>
<path d="M131.754 9.2984L131.734 8.74757C131.734 8.74757 131.699 8.23758 131.514 7.96064C131.329 7.68371 131.069 7.52405 130.88 7.45746C130.691 7.39012 130.579 7.36214 130.333 7.35231C130.088 7.34247 129.802 7.34171 129.802 7.34171M131.754 9.2984L129.802 7.34171M131.754 9.2984L131.734 9.84924C131.734 9.84924 131.7 10.3592 131.515 10.6362C131.329 10.9131 131.071 11.072 130.881 11.1393C130.692 11.2067 130.58 11.2354 130.334 11.2445C130.088 11.2536 129.802 11.2551 129.802 11.2551M131.754 9.2984L129.802 11.2551M129.802 7.34171L127.848 9.2984M129.802 7.34171C129.802 7.34171 129.515 7.34323 129.269 7.35231C129.024 7.36139 128.912 7.39012 128.722 7.45746C128.533 7.52481 128.274 7.68371 128.088 7.96064C127.902 8.23758 127.868 8.74757 127.868 8.74757L127.848 9.2984M129.802 7.34171L127.849 9.29917L129.802 11.2551M129.802 11.2551C129.802 11.2551 129.516 11.2536 129.27 11.2445C129.024 11.2354 128.912 11.2067 128.723 11.1393C128.533 11.072 128.275 10.9131 128.089 10.6362C127.903 10.3592 127.869 9.84924 127.869 9.84924L127.848 9.2984M129.802 11.2551L127.848 9.2984M135.661 9.29991L135.641 8.74907C135.641 8.74907 135.606 8.2391 135.421 7.96217C135.236 7.68523 134.976 7.52557 134.787 7.45899C134.597 7.39165 134.485 7.36365 134.24 7.35381C133.994 7.34473 133.708 7.34321 133.708 7.34321M135.661 9.29991L133.708 7.34321M135.661 9.29991L133.709 11.2559M133.708 7.34321L131.756 9.29917M133.708 7.34321C133.708 7.34321 133.422 7.34397 133.177 7.35305C132.931 7.36213 132.819 7.39089 132.629 7.45823C132.44 7.52557 132.181 7.68447 131.995 7.96141C131.809 8.23834 131.776 8.74833 131.776 8.74833L131.756 9.29917M133.708 7.34321L131.756 9.29991L133.709 11.2559M133.709 11.2559C133.709 11.2559 133.423 11.2543 133.177 11.2453C132.932 11.2362 132.82 11.2074 132.63 11.1401C132.441 11.0727 132.182 10.9138 131.996 10.6369C131.81 10.36 131.776 9.85001 131.776 9.85001L131.756 9.29917M133.709 11.2559L131.756 9.29917M133.709 11.2559C133.709 11.2559 133.995 11.2543 134.241 11.2453C134.486 11.2362 134.598 11.2074 134.788 11.1401C134.977 11.0727 135.236 10.9138 135.422 10.6369C135.608 10.36 135.642 9.85001 135.642 9.85001L135.662 9.29917L133.709 11.2559Z" stroke="#0047BB" stroke-width="0.01" stroke-miterlimit="10"/>
<path d="M147.366 9.29079L147.345 8.73995C147.345 8.73995 147.31 8.22996 147.125 7.95303C146.94 7.67609 146.68 7.51646 146.491 7.44987C146.301 7.38253 146.189 7.35453 145.944 7.34469C145.698 7.33485 145.412 7.33409 145.412 7.33409L147.366 9.29079ZM143.461 9.29079L143.482 8.73995C143.482 8.73995 143.517 8.22996 143.702 7.95303C143.887 7.67609 144.146 7.51646 144.335 7.44987C144.524 7.38253 144.637 7.35453 144.882 7.34469C145.128 7.33485 145.414 7.33409 145.414 7.33409L143.461 9.29079L143.482 9.84163C143.482 9.84163 143.517 10.3516 143.702 10.6285C143.887 10.9055 144.146 11.0651 144.335 11.1317C144.524 11.1991 144.637 11.227 144.882 11.2369C145.128 11.2467 145.414 11.2475 145.414 11.2475L143.461 9.29079ZM145.414 11.2475C145.414 11.2475 145.7 11.246 145.945 11.2369C146.191 11.2278 146.303 11.1991 146.492 11.1317C146.682 11.0644 146.941 10.9055 147.127 10.6285C147.312 10.3516 147.346 9.84163 147.346 9.84163L147.367 9.29079L145.414 11.2475ZM145.413 7.33485L143.46 9.29155L145.413 11.2482L147.366 9.29155L145.413 7.33485ZM151.273 9.29231L151.252 8.74147C151.252 8.74147 151.217 8.23148 151.032 7.95455C150.847 7.67762 150.588 7.51796 150.399 7.45137C150.209 7.38403 150.097 7.35603 149.852 7.34619C149.606 7.33635 149.32 7.33562 149.32 7.33562L151.273 9.29231ZM147.368 9.29231L147.388 8.74147C147.388 8.74147 147.423 8.23148 147.608 7.95455C147.793 7.67762 148.053 7.51796 148.242 7.45137C148.432 7.38403 148.544 7.35603 148.789 7.34619C149.035 7.33635 149.321 7.33562 149.321 7.33562L147.368 9.29231L147.388 9.84315C147.388 9.84315 147.423 10.3531 147.608 10.6301C147.793 10.907 148.053 11.0666 148.242 11.1332C148.432 11.2006 148.544 11.2286 148.789 11.2384C149.035 11.2482 149.321 11.249 149.321 11.249L147.368 9.29231ZM149.32 11.2482C149.32 11.2482 149.606 11.2467 149.852 11.2376C150.097 11.2286 150.209 11.1998 150.399 11.1325C150.589 11.0651 150.847 10.9062 151.032 10.6293C151.217 10.3524 151.252 9.84239 151.252 9.84239L151.273 9.29155L149.32 11.2482ZM149.32 7.33562L147.368 9.29231L149.32 11.249L151.273 9.29231L149.32 7.33562Z" fill="#0047BB"/>
<path d="M143.461 9.29079L143.482 8.73995C143.482 8.73995 143.517 8.22996 143.702 7.95303C143.887 7.67609 144.146 7.51646 144.335 7.44987C144.524 7.38253 144.637 7.35453 144.882 7.34469C145.128 7.33485 145.414 7.33409 145.414 7.33409L143.461 9.29079ZM143.461 9.29079L143.482 9.84163C143.482 9.84163 143.517 10.3516 143.702 10.6285C143.887 10.9055 144.146 11.0651 144.335 11.1317C144.524 11.1991 144.637 11.227 144.882 11.2369C145.128 11.2467 145.414 11.2475 145.414 11.2475L143.461 9.29079ZM147.368 9.29231L147.388 8.74147C147.388 8.74147 147.423 8.23148 147.608 7.95455C147.793 7.67762 148.053 7.51796 148.242 7.45137C148.432 7.38403 148.544 7.35603 148.789 7.34619C149.035 7.33635 149.321 7.33562 149.321 7.33562L147.368 9.29231ZM147.368 9.29231L147.388 9.84315C147.388 9.84315 147.423 10.3531 147.608 10.6301C147.793 10.907 148.053 11.0666 148.242 11.1332C148.432 11.2006 148.544 11.2286 148.789 11.2384C149.035 11.2482 149.321 11.249 149.321 11.249L147.368 9.29231ZM147.366 9.29079L147.345 8.73995C147.345 8.73995 147.31 8.22996 147.125 7.95303C146.94 7.67609 146.68 7.51646 146.491 7.44987C146.301 7.38253 146.189 7.35453 145.944 7.34469C145.698 7.33485 145.412 7.33409 145.412 7.33409L147.366 9.29079ZM145.414 11.2475C145.414 11.2475 145.7 11.246 145.945 11.2369C146.191 11.2278 146.303 11.1991 146.492 11.1317C146.682 11.0644 146.941 10.9055 147.127 10.6285C147.312 10.3516 147.346 9.84163 147.346 9.84163L147.367 9.29079L145.414 11.2475ZM145.413 7.33485L143.46 9.29155L145.413 11.2482L147.366 9.29155L145.413 7.33485ZM151.273 9.29231L151.252 8.74147C151.252 8.74147 151.217 8.23148 151.032 7.95455C150.847 7.67762 150.588 7.51796 150.399 7.45137C150.209 7.38403 150.097 7.35603 149.852 7.34619C149.606 7.33635 149.32 7.33562 149.32 7.33562L151.273 9.29231ZM149.32 11.2482C149.32 11.2482 149.606 11.2467 149.852 11.2376C150.097 11.2286 150.209 11.1998 150.399 11.1325C150.589 11.0651 150.847 10.9062 151.032 10.6293C151.217 10.3524 151.252 9.84239 151.252 9.84239L151.273 9.29155L149.32 11.2482ZM149.32 7.33562L147.368 9.29231L149.32 11.249L151.273 9.29231L149.32 7.33562Z" stroke="#0047BB" stroke-width="0.01" stroke-miterlimit="10"/>
<path d="M141.509 29.3239L141.488 28.7731C141.488 28.7731 141.453 28.2631 141.268 27.9861C141.083 27.7092 140.824 27.5495 140.634 27.4829C140.445 27.4156 140.333 27.3876 140.087 27.3778C139.842 27.3679 139.555 27.3672 139.555 27.3672L141.509 29.3239ZM137.604 29.3239L137.624 28.7731C137.624 28.7731 137.659 28.2631 137.844 27.9861C138.029 27.7092 138.289 27.5495 138.477 27.4829C138.667 27.4156 138.779 27.3876 139.025 27.3778C139.27 27.3679 139.556 27.3672 139.556 27.3672L137.604 29.3239L137.624 29.8747C137.624 29.8747 137.659 30.3847 137.844 30.6617C138.029 30.9386 138.289 31.0982 138.477 31.1648C138.667 31.2321 138.779 31.2601 139.025 31.27C139.27 31.2798 139.556 31.2806 139.556 31.2806L137.604 29.3239ZM139.556 31.2806C139.556 31.2806 139.842 31.2791 140.088 31.27C140.333 31.2609 140.445 31.2321 140.635 31.1648C140.824 31.0975 141.083 30.9386 141.269 30.6617C141.455 30.3847 141.489 29.8747 141.489 29.8747L141.509 29.3239L139.556 31.2806ZM139.556 27.3679L137.604 29.3247L139.556 31.2813L141.509 29.3247L139.556 27.3679ZM141.509 33.2373L141.488 32.6864C141.488 32.6864 141.453 32.1765 141.268 31.8995C141.083 31.6226 140.824 31.4629 140.634 31.3963C140.445 31.329 140.333 31.301 140.087 31.2912C139.842 31.2813 139.555 31.2806 139.555 31.2806L141.509 33.2373ZM137.604 33.2373L137.624 32.6864C137.624 32.6864 137.659 32.1765 137.844 31.8995C138.029 31.6226 138.289 31.4629 138.478 31.3963C138.668 31.329 138.78 31.301 139.025 31.2912C139.271 31.2821 139.557 31.2806 139.557 31.2806L137.604 33.2373L137.624 33.7881C137.624 33.7881 137.659 34.2981 137.844 34.575C138.029 34.852 138.289 35.0116 138.478 35.0782C138.668 35.1455 138.78 35.1735 139.025 35.1834C139.271 35.1925 139.557 35.194 139.557 35.194L137.604 33.2373ZM139.556 35.1932C139.556 35.1932 139.842 35.1917 140.088 35.1826C140.333 35.1735 140.445 35.1448 140.635 35.0775C140.824 35.0101 141.083 34.8512 141.269 34.5743C141.455 34.2973 141.489 33.7874 141.489 33.7874L141.509 33.2365L139.556 35.1932ZM139.556 31.2806L137.604 33.2373L139.556 35.1932L141.509 33.2373L139.556 31.2806Z" fill="#0047BB"/>
<path d="M137.604 29.3239L137.624 28.7731C137.624 28.7731 137.659 28.2631 137.844 27.9861C138.029 27.7092 138.289 27.5495 138.477 27.4829C138.667 27.4156 138.779 27.3876 139.025 27.3778C139.27 27.3679 139.556 27.3672 139.556 27.3672L137.604 29.3239ZM137.604 29.3239L137.624 29.8747C137.624 29.8747 137.659 30.3847 137.844 30.6617C138.029 30.9386 138.289 31.0982 138.477 31.1648C138.667 31.2321 138.779 31.2601 139.025 31.27C139.27 31.2798 139.556 31.2806 139.556 31.2806L137.604 29.3239ZM137.604 33.2373L137.624 32.6864C137.624 32.6864 137.659 32.1765 137.844 31.8995C138.029 31.6226 138.289 31.4629 138.478 31.3963C138.668 31.329 138.78 31.301 139.025 31.2912C139.271 31.2821 139.557 31.2806 139.557 31.2806L137.604 33.2373ZM137.604 33.2373L137.624 33.7881C137.624 33.7881 137.659 34.2981 137.844 34.575C138.029 34.852 138.289 35.0116 138.478 35.0782C138.668 35.1455 138.78 35.1735 139.025 35.1834C139.271 35.1925 139.557 35.194 139.557 35.194L137.604 33.2373ZM141.509 29.3239L141.488 28.7731C141.488 28.7731 141.453 28.2631 141.268 27.9861C141.083 27.7092 140.824 27.5495 140.634 27.4829C140.445 27.4156 140.333 27.3876 140.087 27.3778C139.842 27.3679 139.555 27.3672 139.555 27.3672L141.509 29.3239ZM139.556 31.2806C139.556 31.2806 139.842 31.2791 140.088 31.27C140.333 31.2609 140.445 31.2321 140.635 31.1648C140.824 31.0975 141.083 30.9386 141.269 30.6617C141.455 30.3847 141.489 29.8747 141.489 29.8747L141.509 29.3239L139.556 31.2806ZM139.556 27.3679L137.604 29.3247L139.556 31.2813L141.509 29.3247L139.556 27.3679ZM141.509 33.2373L141.488 32.6864C141.488 32.6864 141.453 32.1765 141.268 31.8995C141.083 31.6226 140.824 31.4629 140.634 31.3963C140.445 31.329 140.333 31.301 140.087 31.2912C139.842 31.2813 139.555 31.2806 139.555 31.2806L141.509 33.2373ZM139.556 35.1932C139.556 35.1932 139.842 35.1917 140.088 35.1826C140.333 35.1735 140.445 35.1448 140.635 35.0775C140.824 35.0101 141.083 34.8512 141.269 34.5743C141.455 34.2973 141.489 33.7874 141.489 33.7874L141.509 33.2365L139.556 35.1932ZM139.556 31.2806L137.604 33.2373L139.556 35.1932L141.509 33.2373L139.556 31.2806Z" stroke="#0047BB" stroke-width="0.01" stroke-miterlimit="10"/>
<path d="M141.505 19.3118L141.484 18.761C141.484 18.761 141.45 18.251 141.265 17.9741C141.079 17.6971 140.82 17.5375 140.63 17.4709C140.441 17.4035 140.329 17.3755 140.083 17.3657C139.838 17.3566 139.552 17.3551 139.552 17.3551L141.505 19.3118ZM139.552 21.2677C139.552 21.2677 139.266 21.2662 139.021 21.2571C138.775 21.2481 138.663 21.2193 138.474 21.152C138.284 21.0846 138.025 20.9257 137.84 20.6488C137.654 20.3719 137.62 19.8619 137.62 19.8619L137.599 19.3111L139.552 17.3544C139.552 17.3544 139.266 17.3559 139.02 17.365C138.775 17.374 138.662 17.4028 138.473 17.4701C138.283 17.5375 138.025 17.6964 137.839 17.9733C137.654 18.2502 137.619 18.7602 137.619 18.7602L137.598 19.3111L139.552 21.2677ZM139.552 21.2677C139.552 21.2677 139.839 21.2662 140.084 21.2571C140.33 21.2481 140.442 21.2193 140.631 21.152C140.821 21.0846 141.079 20.9257 141.265 20.6488C141.45 20.3719 141.485 19.8619 141.485 19.8619L141.506 19.3111L139.552 21.2677ZM139.552 17.3551L137.6 19.3118L139.552 21.2685L141.505 19.3118L139.552 17.3551ZM141.506 23.2244L141.485 22.6736C141.485 22.6736 141.45 22.1636 141.265 21.8867C141.08 21.6097 140.821 21.4501 140.632 21.3835C140.442 21.3162 140.33 21.2882 140.085 21.2783C139.839 21.2693 139.553 21.2677 139.553 21.2677L141.506 23.2244ZM137.601 23.2244L137.621 22.6736C137.621 22.6736 137.656 22.1636 137.841 21.8867C138.026 21.6097 138.286 21.4501 138.475 21.3835C138.665 21.3162 138.777 21.2882 139.022 21.2783C139.268 21.2685 139.554 21.2677 139.554 21.2677L137.601 23.2244L137.621 23.7753C137.621 23.7753 137.656 24.2853 137.841 24.5622C138.026 24.8391 138.286 24.9988 138.475 25.0654C138.665 25.1327 138.777 25.1607 139.022 25.1705C139.268 25.1804 139.554 25.1811 139.554 25.1811L137.601 23.2244ZM139.553 25.1811C139.553 25.1811 139.839 25.1796 140.085 25.1705C140.33 25.1615 140.442 25.1327 140.632 25.0654C140.821 24.998 141.08 24.8391 141.265 24.5622C141.45 24.2853 141.485 23.7753 141.485 23.7753L141.506 23.2244L139.553 25.1811ZM139.553 21.2685L137.601 23.2252L139.553 25.1819L141.506 23.2252L139.553 21.2685Z" fill="#0047BB"/>
<path d="M137.601 23.2244L137.621 22.6736C137.621 22.6736 137.656 22.1636 137.841 21.8867C138.026 21.6097 138.286 21.4501 138.475 21.3835C138.665 21.3162 138.777 21.2882 139.022 21.2783C139.268 21.2685 139.554 21.2677 139.554 21.2677L137.601 23.2244ZM137.601 23.2244L137.621 23.7753C137.621 23.7753 137.656 24.2853 137.841 24.5622C138.026 24.8391 138.286 24.9988 138.475 25.0654C138.665 25.1327 138.777 25.1607 139.022 25.1705C139.268 25.1804 139.554 25.1811 139.554 25.1811L137.601 23.2244ZM141.505 19.3118L141.484 18.761C141.484 18.761 141.45 18.251 141.265 17.9741C141.079 17.6971 140.82 17.5375 140.63 17.4709C140.441 17.4035 140.329 17.3755 140.083 17.3657C139.838 17.3566 139.552 17.3551 139.552 17.3551L141.505 19.3118ZM139.552 21.2677C139.552 21.2677 139.266 21.2662 139.021 21.2571C138.775 21.2481 138.663 21.2193 138.474 21.152C138.284 21.0846 138.025 20.9257 137.84 20.6488C137.654 20.3719 137.62 19.8619 137.62 19.8619L137.599 19.3111L139.552 17.3544C139.552 17.3544 139.266 17.3559 139.02 17.365C138.775 17.374 138.662 17.4028 138.473 17.4701C138.283 17.5375 138.025 17.6964 137.839 17.9733C137.654 18.2502 137.619 18.7602 137.619 18.7602L137.598 19.3111L139.552 21.2677ZM139.552 21.2677C139.552 21.2677 139.839 21.2662 140.084 21.2571C140.33 21.2481 140.442 21.2193 140.631 21.152C140.821 21.0846 141.079 20.9257 141.265 20.6488C141.45 20.3719 141.485 19.8619 141.485 19.8619L141.506 19.3111L139.552 21.2677ZM139.552 17.3551L137.6 19.3118L139.552 21.2685L141.505 19.3118L139.552 17.3551ZM141.506 23.2244L141.485 22.6736C141.485 22.6736 141.45 22.1636 141.265 21.8867C141.08 21.6097 140.821 21.4501 140.632 21.3835C140.442 21.3162 140.33 21.2882 140.085 21.2783C139.839 21.2693 139.553 21.2677 139.553 21.2677L141.506 23.2244ZM139.553 25.1811C139.553 25.1811 139.839 25.1796 140.085 25.1705C140.33 25.1615 140.442 25.1327 140.632 25.0654C140.821 24.998 141.08 24.8391 141.265 24.5622C141.45 24.2853 141.485 23.7753 141.485 23.7753L141.506 23.2244L139.553 25.1811ZM139.553 21.2685L137.601 23.2252L139.553 25.1819L141.506 23.2252L139.553 21.2685Z" stroke="#0047BB" stroke-width="0.01" stroke-miterlimit="10"/>
</svg>
